<svg width="15" height="14" viewBox="0 0 15 14" fill="none" xmlns="http://www.w3.org/2000/svg">
<path d="M7.50043 9.5C7.99488 9.5 8.47823 9.35338 8.88936 9.07867C9.30048 8.80397 9.62091 8.41352 9.81013 7.95671C9.99935 7.49989 10.0489 6.99723 9.95239 6.51227C9.85593 6.02732 9.61783 5.58186 9.2682 5.23223C8.91857 4.8826 8.47311 4.6445 7.98816 4.54804C7.5032 4.45157 7.00054 4.50108 6.54372 4.6903C6.08691 4.87952 5.69646 5.19995 5.42176 5.61107C5.14705 6.0222 5.00043 6.50555 5.00043 7C5.00043 7.66304 5.26382 8.29893 5.73266 8.76777C6.2015 9.23661 6.83739 9.5 7.50043 9.5ZM7.50043 5.75C7.74766 5.75 7.98933 5.82331 8.19489 5.96066C8.40045 6.09801 8.56067 6.29324 8.65528 6.52165C8.74989 6.75005 8.77464 7.00139 8.72641 7.24386C8.67818 7.48634 8.55913 7.70907 8.38431 7.88388C8.2095 8.0587 7.98677 8.17775 7.74429 8.22598C7.50182 8.27421 7.25048 8.24946 7.02208 8.15485C6.79367 8.06024 6.59845 7.90002 6.46109 7.69446C6.32374 7.4889 6.25043 7.24723 6.25043 7C6.25043 6.66848 6.38213 6.35054 6.61655 6.11612C6.85097 5.8817 7.16891 5.75 7.50043 5.75ZM2.18793 7.54812L1.56293 7.91C1.42073 7.99203 1.29607 8.10126 1.19609 8.23147C1.0961 8.36167 1.02274 8.5103 0.980199 8.66886C0.937658 8.82742 0.926766 8.99281 0.948146 9.15557C0.969526 9.31834 1.02276 9.47531 1.10481 9.6175L2.03543 11.2288C2.11741 11.3712 2.22666 11.496 2.35694 11.5962C2.48722 11.6963 2.63597 11.7698 2.79468 11.8124C2.95339 11.8551 3.11895 11.8659 3.28187 11.8445C3.4448 11.8231 3.6019 11.7697 3.74418 11.6875L4.37543 11.3225C4.47177 11.2681 4.58074 11.2401 4.69135 11.2413C4.80197 11.2425 4.91031 11.2729 5.00543 11.3294C5.09937 11.3838 5.17739 11.4619 5.23169 11.5559C5.28598 11.6498 5.31464 11.7565 5.31481 11.865V12.625C5.31481 12.9565 5.4465 13.2745 5.68092 13.5089C5.91534 13.7433 6.23329 13.875 6.56481 13.875H8.43981C8.77133 13.875 9.08927 13.7433 9.32369 13.5089C9.55811 13.2745 9.68981 12.9565 9.68981 12.625V11.8637C9.69147 11.7547 9.72139 11.6479 9.77665 11.5539C9.8319 11.4599 9.9106 11.3818 10.0051 11.3272C10.0995 11.2727 10.2065 11.2436 10.3156 11.2428C10.4246 11.2419 10.532 11.2694 10.6273 11.3225L11.2579 11.6862C11.545 11.852 11.8862 11.8969 12.2064 11.8111C12.5266 11.7253 12.7997 11.5158 12.9654 11.2288L13.8954 9.6175C13.9775 9.47531 14.0307 9.31834 14.0521 9.15557C14.0735 8.99281 14.0626 8.82742 14.02 8.66886C13.9775 8.5103 13.9041 8.36167 13.8042 8.23147C13.7042 8.10126 13.5795 7.99203 13.4373 7.91L12.8123 7.54812C12.7154 7.49167 12.6353 7.41033 12.5803 7.31253C12.5254 7.21473 12.4976 7.10403 12.4998 6.99188C12.5 6.88238 12.529 6.77486 12.5839 6.68009C12.6387 6.58532 12.7175 6.50662 12.8123 6.45188L13.4373 6.09C13.5795 6.00797 13.7042 5.89874 13.8042 5.76853C13.9041 5.63833 13.9775 5.4897 14.02 5.33114C14.0626 5.17258 14.0735 5.00719 14.0521 4.84443C14.0307 4.68166 13.9775 4.52469 13.8954 4.3825L12.9642 2.77125C12.8822 2.62899 12.773 2.50428 12.6428 2.40423C12.5126 2.30418 12.364 2.23076 12.2055 2.18816C12.0469 2.14556 11.8815 2.13461 11.7187 2.15595C11.5559 2.17728 11.3989 2.23048 11.2567 2.3125L10.6254 2.67688C10.5301 2.73018 10.4226 2.7578 10.3134 2.75703C10.2043 2.75626 10.0971 2.72713 10.0026 2.67249C9.90808 2.61785 9.82937 2.53958 9.77421 2.44535C9.71904 2.35113 9.68931 2.24418 9.68793 2.135V1.375C9.68793 1.04348 9.55623 0.725537 9.32181 0.491117C9.08739 0.256696 8.76945 0.125 8.43793 0.125H6.56293C6.23141 0.125 5.91347 0.256696 5.67905 0.491117C5.44463 0.725537 5.31293 1.04348 5.31293 1.375V2.18375C5.31291 2.27755 5.28818 2.36968 5.24122 2.45088C5.19425 2.53208 5.12673 2.59946 5.04543 2.64625L4.94918 2.70188C4.86784 2.74812 4.77587 2.77243 4.68231 2.77243C4.58874 2.77243 4.49677 2.74812 4.41543 2.70188L3.74418 2.3125C3.602 2.23033 3.44502 2.17698 3.28221 2.1555C3.1194 2.13403 2.95395 2.14484 2.79532 2.18733C2.6367 2.22981 2.48799 2.30314 2.35772 2.40312C2.22744 2.5031 2.11814 2.62776 2.03606 2.77L1.10606 4.38313C0.94045 4.67009 0.895547 5.01107 0.981216 5.33112C1.06688 5.65118 1.27612 5.92413 1.56293 6.09L2.18793 6.45125C2.28478 6.50796 2.36478 6.58944 2.4197 6.68731C2.47463 6.78518 2.50249 6.89591 2.50043 7.00812C2.50059 7.1177 2.47177 7.22536 2.41688 7.3202C2.362 7.41504 2.28301 7.49367 2.18793 7.54812ZM2.81293 5.36875L2.18793 5.0075L3.11918 3.39625L3.79043 3.78375C4.06142 3.93948 4.36851 4.02143 4.68106 4.02143C4.9936 4.02143 5.30069 3.93948 5.57168 3.78375L5.66793 3.72875C5.93933 3.57213 6.16484 3.347 6.32191 3.07586C6.47897 2.80472 6.56209 2.49709 6.56293 2.18375V1.375H8.43793V2.135C8.43923 2.46365 8.52666 2.78621 8.6915 3.07053C8.85634 3.35485 9.09283 3.59098 9.37739 3.7554C9.66196 3.91981 9.98465 4.00676 10.3133 4.00757C10.6419 4.00837 10.9651 3.92302 11.2504 3.76L11.8798 3.39625L12.8129 5.0075L12.1879 5.36875C11.9033 5.5354 11.6673 5.77362 11.5033 6.05973C11.3393 6.34585 11.253 6.6699 11.253 6.99969C11.253 7.32948 11.3393 7.65353 11.5033 7.93964C11.6673 8.22576 11.9033 8.46397 12.1879 8.63062L12.8129 8.9925L11.8829 10.6038L11.2504 10.24C10.9651 10.077 10.6419 9.99162 10.3133 9.99243C9.98465 9.99324 9.66196 10.0802 9.37739 10.2446C9.09283 10.409 8.85634 10.6452 8.6915 10.9295C8.52666 11.2138 8.43923 11.5364 8.43793 11.865V12.625H6.56293V11.865C6.56201 11.5362 6.47481 11.2134 6.31006 10.9289C6.14531 10.6443 5.90878 10.408 5.62408 10.2435C5.33939 10.079 5.01652 9.99215 4.68773 9.99153C4.35894 9.99091 4.03574 10.0766 3.75043 10.24L3.12106 10.6038L2.18793 8.9925L2.81293 8.63062C3.09752 8.46397 3.33354 8.22576 3.49756 7.93964C3.66157 7.65353 3.74787 7.32948 3.74787 6.99969C3.74787 6.6699 3.66157 6.34585 3.49756 6.05973C3.33354 5.77362 3.09752 5.5354 2.81293 5.36875Z" fill="black"/>
</svg>
