<svg width="13" height="14" viewBox="0 0 13 14" fill="none" xmlns="http://www.w3.org/2000/svg">
<path d="M3.81674 4.94187L2.38362 6.375H9.62487C9.79063 6.375 9.9496 6.44085 10.0668 6.55806C10.184 6.67527 10.2499 6.83424 10.2499 7C10.2499 7.16576 10.184 7.32473 10.0668 7.44194C9.9496 7.55915 9.79063 7.625 9.62487 7.625H2.38362L3.81674 9.05813C3.87644 9.11578 3.92405 9.18474 3.9568 9.261C3.98956 9.33725 4.0068 9.41926 4.00752 9.50225C4.00824 9.58524 3.99243 9.66754 3.96101 9.74435C3.92958 9.82116 3.88317 9.89094 3.82449 9.94962C3.76581 10.0083 3.69602 10.0547 3.61921 10.0861C3.5424 10.1176 3.4601 10.1334 3.37712 10.1327C3.29413 10.1319 3.21212 10.1147 3.13586 10.0819C3.05961 10.0492 2.99065 10.0016 2.93299 9.94188L0.432991 7.44187C0.315822 7.32467 0.25 7.16573 0.25 7C0.25 6.83427 0.315822 6.67533 0.432991 6.55813L2.93299 4.05813C2.99065 3.99843 3.05961 3.95082 3.13586 3.91806C3.21212 3.88531 3.29413 3.86806 3.37712 3.86734C3.4601 3.86662 3.5424 3.88244 3.61921 3.91386C3.69602 3.94529 3.76581 3.9917 3.82449 4.05038C3.88317 4.10906 3.92958 4.17884 3.96101 4.25565C3.99243 4.33246 4.00824 4.41476 4.00752 4.49775C4.0068 4.58074 3.98956 4.66275 3.9568 4.739C3.92405 4.81526 3.87644 4.88422 3.81674 4.94187ZM12.1249 0.125H7.12487C6.95911 0.125 6.80014 0.190848 6.68292 0.308058C6.56571 0.425268 6.49987 0.58424 6.49987 0.75C6.49987 0.91576 6.56571 1.07473 6.68292 1.19194C6.80014 1.30915 6.95911 1.375 7.12487 1.375H11.4999V12.625H7.12487C6.95911 12.625 6.80014 12.6908 6.68292 12.8081C6.56571 12.9253 6.49987 13.0842 6.49987 13.25C6.49987 13.4158 6.56571 13.5747 6.68292 13.6919C6.80014 13.8092 6.95911 13.875 7.12487 13.875H12.1249C12.2906 13.875 12.4496 13.8092 12.5668 13.6919C12.684 13.5747 12.7499 13.4158 12.7499 13.25V0.75C12.7499 0.58424 12.684 0.425268 12.5668 0.308058C12.4496 0.190848 12.2906 0.125 12.1249 0.125Z" fill="black"/>
</svg>
