<svg width="18" height="20" viewBox="0 0 18 20" fill="none" xmlns="http://www.w3.org/2000/svg">
<path d="M1 18H17C17.2652 18 17.5196 18.1054 17.7071 18.2929C17.8946 18.4804 18 18.7348 18 19C18 19.2652 17.8946 19.5196 17.7071 19.7071C17.5196 19.8946 17.2652 20 17 20H1C0.734784 20 0.48043 19.8946 0.292893 19.7071C0.105357 19.5196 0 19.2652 0 19C0 18.7348 0.105357 18.4804 0.292893 18.2929C0.48043 18.1054 0.734784 18 1 18ZM9 0C8.73478 0 8.48043 0.105357 8.29289 0.292893C8.10536 0.48043 8 0.734784 8 1V12.586L5.707 10.293C5.61475 10.1975 5.50441 10.1213 5.3824 10.0689C5.2604 10.0165 5.12918 9.9889 4.9964 9.98775C4.86362 9.9866 4.73194 10.0119 4.60905 10.0622C4.48615 10.1125 4.3745 10.1867 4.2806 10.2806C4.18671 10.3745 4.11246 10.4861 4.06218 10.609C4.0119 10.7319 3.9866 10.8636 3.98775 10.9964C3.9889 11.1292 4.01649 11.2604 4.0689 11.3824C4.12131 11.5044 4.19749 11.6148 4.293 11.707L8.293 15.707C8.3861 15.7996 8.49653 15.873 8.618 15.923C8.73894 15.9738 8.86881 16 9 16C9.13119 16 9.26106 15.9738 9.382 15.923C9.50347 15.873 9.6139 15.7996 9.707 15.707L13.707 11.707C13.8892 11.5184 13.99 11.2658 13.9877 11.0036C13.9854 10.7414 13.8802 10.4906 13.6948 10.3052C13.5094 10.1198 13.2586 10.0146 12.9964 10.0123C12.7342 10.01 12.4816 10.1108 12.293 10.293L10 12.586V1C10 0.734784 9.89464 0.48043 9.70711 0.292893C9.51957 0.105357 9.26522 0 9 0Z" fill="black"/>
</svg>
