<svg width="13" height="14" viewBox="0 0 13 14" fill="none" xmlns="http://www.w3.org/2000/svg">
<path d="M10.875 8.25C11.0062 8.25003 11.1341 8.20876 11.2406 8.13203C11.3471 8.0553 11.4267 7.947 11.4681 7.8225L12.7181 4.0725C12.7494 3.97854 12.7579 3.87849 12.743 3.7806C12.728 3.6827 12.69 3.58976 12.6321 3.50943C12.5742 3.42911 12.498 3.3637 12.4098 3.31859C12.3217 3.27349 12.224 3.24998 12.125 3.25H3.375V0.75C3.375 0.58424 3.30915 0.425268 3.19194 0.308058C3.07473 0.190848 2.91576 0.125 2.75 0.125H0.875C0.70924 0.125 0.550268 0.190848 0.433058 0.308058C0.315848 0.425268 0.25 0.58424 0.25 0.75C0.25 0.91576 0.315848 1.07473 0.433058 1.19194C0.550268 1.30915 0.70924 1.375 0.875 1.375H2.125V10.125C2.125 10.2908 2.19085 10.4497 2.30806 10.5669C2.42527 10.6842 2.58424 10.75 2.75 10.75H10.25C10.4158 10.75 10.5747 10.6842 10.6919 10.5669C10.8092 10.4497 10.875 10.2908 10.875 10.125C10.875 9.95924 10.8092 9.80027 10.6919 9.68306C10.5747 9.56585 10.4158 9.5 10.25 9.5H3.375V8.25H10.875ZM3.375 4.5H11.2581L10.4244 7H3.375V4.5ZM3.0625 11.375C3.24792 11.375 3.42918 11.43 3.58335 11.533C3.73752 11.636 3.85768 11.7824 3.92864 11.9537C3.99959 12.125 4.01816 12.3135 3.98199 12.4954C3.94581 12.6773 3.85652 12.8443 3.72541 12.9754C3.5943 13.1065 3.42725 13.1958 3.2454 13.232C3.06354 13.2682 2.87504 13.2496 2.70373 13.1786C2.53243 13.1077 2.38601 12.9875 2.283 12.8333C2.17998 12.6792 2.125 12.4979 2.125 12.3125C2.125 12.0639 2.22377 11.8254 2.39959 11.6496C2.5754 11.4738 2.81386 11.375 3.0625 11.375ZM9.3125 11.375C9.49792 11.375 9.67918 11.43 9.83335 11.533C9.98752 11.636 10.1077 11.7824 10.1786 11.9537C10.2496 12.125 10.2682 12.3135 10.232 12.4954C10.1958 12.6773 10.1065 12.8443 9.97541 12.9754C9.8443 13.1065 9.67725 13.1958 9.4954 13.232C9.31354 13.2682 9.12504 13.2496 8.95373 13.1786C8.78243 13.1077 8.63601 12.9875 8.533 12.8333C8.42998 12.6792 8.375 12.4979 8.375 12.3125C8.375 12.0639 8.47377 11.8254 8.64959 11.6496C8.8254 11.4738 9.06386 11.375 9.3125 11.375Z" fill="#A61C20"/>
</svg>
