<svg width="16" height="16" viewBox="0 0 16 16" fill="none" xmlns="http://www.w3.org/2000/svg">
<path d="M12.3234 0.500016C11.9061 0.498692 11.4927 0.58029 11.1072 0.74007C10.7217 0.89985 10.3718 1.13463 10.0779 1.43077L1.36661 10.1413C1.25487 10.2532 1.18137 10.3976 1.15661 10.5538L0.509358 14.6323C0.490698 14.7493 0.500029 14.869 0.536585 14.9818C0.573142 15.0945 0.635884 15.1969 0.71967 15.2807C0.803456 15.3645 0.905902 15.4272 1.01861 15.4638C1.13133 15.5003 1.25109 15.5097 1.36811 15.491L5.45036 14.8438C5.60656 14.819 5.75094 14.7455 5.86286 14.6338L14.5696 5.92252C15.0138 5.47794 15.3162 4.91162 15.4384 4.29518C15.5607 3.67874 15.4974 3.03988 15.2566 2.45942C15.0157 1.87895 14.6081 1.38296 14.0853 1.03418C13.5625 0.685407 12.9481 0.499512 12.3196 0.500016H12.3234ZM4.97036 13.4L2.15036 13.85L2.60036 11.0323L8.89286 4.73902L11.2644 7.11052L4.97036 13.4ZM13.5091 4.86202L12.3241 6.05002L9.95036 3.67627L11.1361 2.49127C11.4555 2.18642 11.88 2.01634 12.3215 2.01634C12.763 2.01634 13.1875 2.18642 13.5069 2.49127C13.6626 2.64687 13.7862 2.83166 13.8705 3.03505C13.9548 3.23845 13.9982 3.45646 13.9982 3.67664C13.9982 3.89682 13.9548 4.11484 13.8705 4.31823C13.7862 4.52163 13.6626 4.70641 13.5069 4.86202H13.5091Z" fill="black"/>
</svg>
