<svg width="21" height="21" viewBox="0 0 21 21" fill="none" xmlns="http://www.w3.org/2000/svg">
<path d="M20.3836 15.7528C20.6173 15.9873 20.7924 16.2735 20.8949 16.5882C20.9974 16.903 21.0243 17.2375 20.9735 17.5645C20.9227 17.8916 20.7955 18.2022 20.6023 18.471C20.4092 18.7398 20.1554 18.9593 19.8616 19.1118C18.1827 20.0092 16.2266 20.2385 14.3856 19.7538C9.49963 18.5238 2.47663 11.5008 1.24663 6.61482C0.761951 4.77387 0.991286 2.81774 1.88863 1.13882C2.04112 0.84502 2.26067 0.591264 2.52948 0.398099C2.79829 0.204933 3.10881 0.0777868 3.4359 0.0269558C3.76299 -0.0238752 4.09746 0.00303766 4.41221 0.105515C4.72696 0.207993 5.01316 0.383155 5.24763 0.616817L7.33263 2.70082C7.6333 2.99847 7.83676 3.38023 7.9162 3.7958C7.99563 4.21137 7.94732 4.64125 7.77763 5.02882C7.59193 5.46366 7.32826 5.86086 6.99963 6.20082C4.61563 8.58482 12.4166 16.3858 14.7996 14.0008C15.1396 13.671 15.5372 13.4063 15.9726 13.2198C16.3601 13.0498 16.7901 13.0014 17.2057 13.0808C17.6214 13.1603 18.0031 13.3639 18.3006 13.6648L20.3836 15.7528Z" fill="black"/>
</svg>
