<svg width="13" height="14" viewBox="0 0 13 14" fill="none" xmlns="http://www.w3.org/2000/svg">
<path d="M12.125 2C12.125 1.83424 12.0592 1.67527 11.9419 1.55806C11.8247 1.44085 11.6658 1.375 11.5 1.375H9.625V0.75C9.625 0.58424 9.55915 0.425268 9.44194 0.308058C9.32473 0.190848 9.16576 0.125 9 0.125H4C3.83424 0.125 3.67527 0.190848 3.55806 0.308058C3.44085 0.425268 3.375 0.58424 3.375 0.75V1.375H1.5C1.33424 1.375 1.17527 1.44085 1.05806 1.55806C0.940848 1.67527 0.875 1.83424 0.875 2V13.25C0.875 13.4158 0.940848 13.5747 1.05806 13.6919C1.17527 13.8092 1.33424 13.875 1.5 13.875H11.5C11.6658 13.875 11.8247 13.8092 11.9419 13.6919C12.0592 13.5747 12.125 13.4158 12.125 13.25V2ZM4.625 1.375H8.375V2.625H4.625V1.375ZM10.875 12.625H2.125V2.625H3.375V3.25C3.375 3.41576 3.44085 3.57473 3.55806 3.69194C3.67527 3.80915 3.83424 3.875 4 3.875H9C9.16576 3.875 9.32473 3.80915 9.44194 3.69194C9.55915 3.57473 9.625 3.41576 9.625 3.25V2.625H10.875V12.625ZM7.125 10.75C7.125 10.9158 7.05915 11.0747 6.94194 11.1919C6.82473 11.3092 6.66576 11.375 6.5 11.375H4C3.83424 11.375 3.67527 11.3092 3.55806 11.1919C3.44085 11.0747 3.375 10.9158 3.375 10.75C3.375 10.5842 3.44085 10.4253 3.55806 10.3081C3.67527 10.1908 3.83424 10.125 4 10.125H6.5C6.66576 10.125 6.82473 10.1908 6.94194 10.3081C7.05915 10.4253 7.125 10.5842 7.125 10.75ZM9.625 8.25C9.625 8.41576 9.55915 8.57473 9.44194 8.69194C9.32473 8.80915 9.16576 8.875 9 8.875H4C3.83424 8.875 3.67527 8.80915 3.55806 8.69194C3.44085 8.57473 3.375 8.41576 3.375 8.25C3.375 8.08424 3.44085 7.92527 3.55806 7.80806C3.67527 7.69085 3.83424 7.625 4 7.625H9C9.16576 7.625 9.32473 7.69085 9.44194 7.80806C9.55915 7.92527 9.625 8.08424 9.625 8.25ZM9.625 5.75C9.625 5.91576 9.55915 6.07473 9.44194 6.19194C9.32473 6.30915 9.16576 6.375 9 6.375H4C3.83424 6.375 3.67527 6.30915 3.55806 6.19194C3.44085 6.07473 3.375 5.91576 3.375 5.75C3.375 5.58424 3.44085 5.42527 3.55806 5.30806C3.67527 5.19085 3.83424 5.125 4 5.125H9C9.16576 5.125 9.32473 5.19085 9.44194 5.30806C9.55915 5.42527 9.625 5.58424 9.625 5.75Z" fill="black"/>
</svg>
