<svg width="27" height="33" viewBox="0 0 27 33" fill="none" xmlns="http://www.w3.org/2000/svg">
<path d="M25.1667 4.83301C19.9035 4.83301 14.429 0.790508 14.375 0.749675C14.1226 0.560351 13.8155 0.458008 13.5 0.458008C13.1845 0.458008 12.8774 0.560351 12.625 0.749675C12.571 0.790508 7.09646 4.83301 1.83333 4.83301C1.44656 4.83301 1.07563 4.98665 0.802136 5.26014C0.528645 5.53363 0.375 5.90457 0.375 6.29134C0.375 7.16634 0.520834 27.7711 12.9881 32.4495C13.3175 32.5713 13.6796 32.5713 14.009 32.4495C26.4792 27.7711 26.625 7.16634 26.625 6.29134C26.625 5.90457 26.4714 5.53363 26.1979 5.26014C25.9244 4.98665 25.5534 4.83301 25.1667 4.83301ZM13.5 29.5109C5.04167 25.833 3.59062 12.0853 3.34271 7.66655C6.98214 7.11297 10.4522 5.75434 13.5 3.68967C16.5478 5.75434 20.0179 7.11297 23.6573 7.66655C23.4167 12.0853 21.9583 25.833 13.5 29.5109ZM7.66667 15.0413C7.66667 16.1951 8.00879 17.3229 8.64976 18.2822C9.29074 19.2415 10.2018 19.9891 11.2677 20.4306C12.3336 20.8721 13.5065 20.9877 14.638 20.7626C15.7696 20.5375 16.809 19.9819 17.6248 19.1661C18.4406 18.3503 18.9962 17.3109 19.2212 16.1794C19.4463 15.0478 19.3308 13.8749 18.8893 12.809C18.4478 11.7431 17.7001 10.8321 16.7408 10.1911C15.7815 9.55013 14.6537 9.20801 13.5 9.20801C11.9529 9.20801 10.4692 9.82259 9.37521 10.9166C8.28125 12.0105 7.66667 13.4942 7.66667 15.0413ZM16.4167 15.0413C16.4167 15.6182 16.2456 16.1821 15.9251 16.6618C15.6046 17.1414 15.1491 17.5152 14.6162 17.736C14.0832 17.9567 13.4968 18.0145 12.931 17.902C12.3652 17.7894 11.8455 17.5116 11.4376 17.1037C11.0297 16.6958 10.7519 16.1761 10.6394 15.6104C10.5268 15.0446 10.5846 14.4581 10.8054 13.9252C11.0261 13.3922 11.3999 12.9367 11.8796 12.6162C12.3592 12.2957 12.9231 12.1247 13.5 12.1247C14.2735 12.1247 15.0154 12.432 15.5624 12.9789C16.1094 13.5259 16.4167 14.2678 16.4167 15.0413Z" fill="black"/>
</svg>
