<svg width="33" height="33" viewBox="0 0 33 33" fill="none" xmlns="http://www.w3.org/2000/svg">
<path d="M32.5413 16.4997C32.5413 16.8864 32.3877 17.2574 32.1142 17.5309C31.8407 17.8044 31.4698 17.958 31.083 17.958H25.8534L29.1974 21.302C29.463 21.577 29.61 21.9454 29.6067 22.3278C29.6034 22.7101 29.45 23.0759 29.1796 23.3463C28.9092 23.6167 28.5435 23.77 28.1611 23.7734C27.7787 23.7767 27.4103 23.6297 27.1353 23.3641L21.7293 17.958H17.958V21.7293L23.3641 27.1353C23.6297 27.4103 23.7767 27.7787 23.7734 28.1611C23.77 28.5435 23.6167 28.9092 23.3463 29.1796C23.0759 29.45 22.7101 29.6034 22.3278 29.6067C21.9454 29.61 21.577 29.463 21.302 29.1974L17.958 25.8534V31.083C17.958 31.4698 17.8044 31.8407 17.5309 32.1142C17.2574 32.3877 16.8864 32.5413 16.4997 32.5413C16.1129 32.5413 15.742 32.3877 15.4685 32.1142C15.195 31.8407 15.0413 31.4698 15.0413 31.083V25.8534L11.6974 29.1974C11.5629 29.3367 11.4019 29.4478 11.224 29.5242C11.0461 29.6006 10.8547 29.6409 10.6611 29.6425C10.4675 29.6442 10.2754 29.6073 10.0962 29.534C9.91698 29.4607 9.75415 29.3524 9.61722 29.2155C9.4803 29.0785 9.37201 28.9157 9.29869 28.7365C9.22536 28.5573 9.18846 28.3652 9.19014 28.1716C9.19183 27.978 9.23206 27.7866 9.30849 27.6087C9.38492 27.4307 9.49602 27.2698 9.6353 27.1353L15.0413 21.7293V17.958H11.2701L5.86405 23.3641C5.589 23.6297 5.22063 23.7767 4.83826 23.7734C4.45589 23.77 4.09012 23.6167 3.81973 23.3463C3.54934 23.0759 3.39597 22.7101 3.39265 22.3278C3.38933 21.9454 3.53632 21.577 3.80197 21.302L7.14593 17.958H1.91634C1.52957 17.958 1.15863 17.8044 0.885144 17.5309C0.611653 17.2574 0.458008 16.8864 0.458008 16.4997C0.458008 16.1129 0.611653 15.742 0.885144 15.4685C1.15863 15.195 1.52957 15.0413 1.91634 15.0413H7.14593L3.80197 11.6974C3.66268 11.5629 3.55158 11.4019 3.47515 11.224C3.39872 11.0461 3.35849 10.8547 3.35681 10.6611C3.35513 10.4675 3.39203 10.2754 3.46535 10.0962C3.53868 9.91698 3.64696 9.75415 3.78389 9.61722C3.92082 9.4803 4.08364 9.37201 4.26287 9.29869C4.44209 9.22536 4.63412 9.18846 4.82776 9.19014C5.0214 9.19183 5.21276 9.23206 5.39068 9.30849C5.5686 9.38492 5.72952 9.49602 5.86405 9.6353L11.2701 15.0413H15.0413V11.2701L9.6353 5.86405C9.49602 5.72952 9.38492 5.5686 9.30849 5.39068C9.23206 5.21276 9.19183 5.0214 9.19014 4.82776C9.18846 4.63412 9.22536 4.44209 9.29869 4.26287C9.37201 4.08364 9.4803 3.92082 9.61722 3.78389C9.75415 3.64696 9.91698 3.53868 10.0962 3.46535C10.2754 3.39203 10.4675 3.35513 10.6611 3.35681C10.8547 3.35849 11.0461 3.39872 11.224 3.47515C11.4019 3.55158 11.5629 3.66268 11.6974 3.80197L15.0413 7.14593V1.91634C15.0413 1.52957 15.195 1.15863 15.4685 0.885144C15.742 0.611653 16.1129 0.458008 16.4997 0.458008C16.8864 0.458008 17.2574 0.611653 17.5309 0.885144C17.8044 1.15863 17.958 1.52957 17.958 1.91634V7.14593L21.302 3.80197C21.4365 3.66268 21.5974 3.55158 21.7753 3.47515C21.9533 3.39872 22.1446 3.35849 22.3383 3.35681C22.5319 3.35513 22.7239 3.39203 22.9032 3.46535C23.0824 3.53868 23.2452 3.64696 23.3821 3.78389C23.5191 3.92082 23.6273 4.08364 23.7007 4.26287C23.774 4.44209 23.8109 4.63412 23.8092 4.82776C23.8075 5.0214 23.7673 5.21276 23.6909 5.39068C23.6144 5.5686 23.5033 5.72952 23.3641 5.86405L17.958 11.2701V15.0413H21.7293L27.1353 9.6353C27.2698 9.49602 27.4307 9.38492 27.6087 9.30849C27.7866 9.23206 27.978 9.19183 28.1716 9.19014C28.3652 9.18846 28.5573 9.22536 28.7365 9.29869C28.9157 9.37201 29.0785 9.4803 29.2155 9.61722C29.3524 9.75415 29.4607 9.91698 29.534 10.0962C29.6073 10.2754 29.6442 10.4675 29.6425 10.6611C29.6409 10.8547 29.6006 11.0461 29.5242 11.224C29.4478 11.4019 29.3367 11.5629 29.1974 11.6974L25.8534 15.0413H31.083C31.4698 15.0413 31.8407 15.195 32.1142 15.4685C32.3877 15.742 32.5413 16.1129 32.5413 16.4997Z" fill="black"/>
</svg>
