<svg width="31" height="33" viewBox="0 0 31 33" fill="none" xmlns="http://www.w3.org/2000/svg">
<path d="M29.2174 6.41694L16.0924 0.583609C15.906 0.500796 15.7043 0.458008 15.5003 0.458008C15.2964 0.458008 15.0946 0.500796 14.9082 0.583609L1.78324 6.41694C1.52538 6.5315 1.30629 6.7184 1.15253 6.95499C0.998777 7.19158 0.916956 7.4677 0.916992 7.74986V8.77069C0.918472 13.5812 2.20567 18.304 4.64533 22.45C7.085 26.596 10.5885 30.0146 14.793 32.3519C15.0095 32.472 15.2529 32.5349 15.5003 32.5349C15.7478 32.5349 15.9912 32.472 16.2076 32.3519C20.4122 30.0146 23.9157 26.596 26.3553 22.45C28.795 18.304 30.0822 13.5812 30.0837 8.77069V7.74986C30.0837 7.4677 30.0019 7.19158 29.8481 6.95499C29.6944 6.7184 29.4753 6.5315 29.2174 6.41694ZM27.167 8.77069C27.1657 12.9223 26.0907 17.0031 24.0465 20.6166C22.0022 24.23 19.0582 27.2534 15.5003 29.393C11.9425 27.2534 8.99842 24.23 6.95417 20.6166C4.90992 17.0031 3.83494 12.9223 3.83366 8.77069V8.69778L15.5003 3.51194L27.167 8.69778V8.77069ZM14.042 13.5832H16.9587V25.2499H14.042V13.5832ZM14.042 7.74986H16.9587V10.6665H14.042V7.74986Z" fill="black"/>
</svg>
