<svg width="36" height="43" viewBox="0 0 36 43" fill="none" xmlns="http://www.w3.org/2000/svg">
<path d="M18 0C8.0604 0 0 7.87437 0 17.5852C0 27.4483 7.875 34.1904 18 43C28.125 34.1904 36 27.4483 36 17.5852C36 7.87437 27.9396 0 18 0ZM19.8 32.1282V25.0833H16.2V32.1282C9.6876 31.3165 4.5378 26.1888 3.7242 19.7083H10.8V16.125H3.7242C4.5378 9.64454 9.6894 4.51679 16.2 3.70696V10.75H19.8V3.70696C26.3106 4.51679 31.4622 9.64454 32.2758 16.125H25.2V19.7083H32.2758C31.4622 26.1888 26.3106 31.3165 19.8 32.1282Z" fill="#17161A"/>
</svg>
