<svg width="33" height="33" viewBox="0 0 33 33" fill="none" xmlns="http://www.w3.org/2000/svg">
<path d="M26.708 20.8746C25.6699 20.8796 24.6526 21.1653 23.7636 21.7014L21.5061 19.4439C22.1509 18.3804 22.4308 17.1355 22.3034 15.8984C22.176 14.6613 21.6482 13.4996 20.8003 12.5898L22.1609 9.18893C22.2193 9.18893 22.2747 9.20643 22.333 9.20643C23.369 9.2166 24.3757 8.86239 25.1771 8.2057C25.9785 7.549 26.5236 6.63158 26.7173 5.61375C26.9109 4.59592 26.7408 3.54241 26.2365 2.63731C25.7322 1.73221 24.926 1.03309 23.9586 0.66211C22.9912 0.291129 21.9242 0.271882 20.944 0.607734C19.9639 0.943585 19.1329 1.61318 18.5964 2.4995C18.0598 3.38582 17.8517 4.43251 18.0086 5.45666C18.1654 6.48082 18.6771 7.4173 19.4543 8.10247L18.3036 10.9798C17.5242 10.7047 16.6931 10.6079 15.8713 10.6965C15.0496 10.7851 14.2582 11.0568 13.5553 11.4916L8.78072 6.71851L8.77051 6.70976C9.05606 6.12515 9.20563 5.4835 9.20801 4.83289C9.20801 3.96759 8.95142 3.12173 8.47069 2.40227C7.98996 1.6828 7.30668 1.12205 6.50725 0.790913C5.70782 0.45978 4.82816 0.37314 3.97949 0.54195C3.13082 0.710761 2.35127 1.12744 1.73942 1.73929C1.12756 2.35115 0.710885 3.1307 0.542074 3.97937C0.373264 4.82803 0.459903 5.7077 0.791037 6.50713C1.12217 7.30655 1.68293 7.98983 2.40239 8.47057C3.12186 8.9513 3.96772 9.20789 4.83301 9.20789C5.48361 9.20536 6.12522 9.0558 6.70989 8.77039L6.71864 8.78351L11.4932 13.5552C10.8567 14.6042 10.5758 15.8307 10.6921 17.0522C10.8085 18.2737 11.3161 19.425 12.1393 20.335L7.99759 25.3954C7.68013 25.3022 7.35135 25.2531 7.02051 25.2496C6.2139 25.24 5.42639 25.495 4.77853 25.9757C4.13067 26.4563 3.65818 27.136 3.43338 27.9107C3.20858 28.6854 3.24386 29.5124 3.53383 30.2652C3.8238 31.0179 4.35247 31.6549 5.03891 32.0786C5.72535 32.5022 6.53173 32.6893 7.33459 32.6111C8.13745 32.5328 8.89256 32.1937 9.4843 31.6454C10.076 31.0972 10.4718 30.3702 10.611 29.5756C10.7502 28.781 10.6252 27.9628 10.2551 27.246L14.5645 21.9771C15.3599 22.2759 16.2131 22.3888 17.0589 22.3071C17.9046 22.2255 18.7205 21.9515 19.4441 21.506L21.7016 23.7635C21.1655 24.6525 20.8798 25.6698 20.8747 26.7079C20.8747 27.8616 21.2168 28.9894 21.8578 29.9487C22.4987 30.908 23.4098 31.6557 24.4757 32.0972C25.5416 32.5387 26.7145 32.6542 27.846 32.4291C28.9776 32.2041 30.017 31.6485 30.8328 30.8327C31.6486 30.0169 32.2042 28.9775 32.4293 27.8459C32.6543 26.7144 32.5388 25.5415 32.0973 24.4756C31.6558 23.4097 30.9081 22.4986 29.9488 21.8576C28.9895 21.2167 27.8617 20.8746 26.708 20.8746ZM4.83301 6.29122C4.54458 6.29122 4.26263 6.20569 4.0228 6.04545C3.78298 5.8852 3.59606 5.65744 3.48569 5.39097C3.37531 5.12449 3.34643 4.83127 3.4027 4.54838C3.45897 4.26549 3.59786 4.00564 3.80181 3.80169C4.00576 3.59774 4.26561 3.45884 4.5485 3.40257C4.83139 3.3463 5.12461 3.37518 5.39109 3.48556C5.65757 3.59594 5.88533 3.78286 6.04557 4.02268C6.20581 4.2625 6.29134 4.54446 6.29134 4.83289C6.29134 5.21966 6.1377 5.59059 5.86421 5.86408C5.59072 6.13757 5.21978 6.29122 4.83301 6.29122ZM13.583 16.4996C13.583 15.9227 13.7541 15.3588 14.0746 14.8791C14.395 14.3995 14.8506 14.0257 15.3835 13.8049C15.9165 13.5841 16.5029 13.5264 17.0687 13.6389C17.6345 13.7515 18.1542 14.0293 18.5621 14.4372C18.97 14.8451 19.2478 15.3648 19.3603 15.9305C19.4728 16.4963 19.4151 17.0828 19.1943 17.6157C18.9736 18.1487 18.5997 18.6042 18.1201 18.9247C17.6404 19.2452 17.0765 19.4162 16.4997 19.4162C15.7261 19.4162 14.9843 19.1089 14.4373 18.5619C13.8903 18.015 13.583 17.2731 13.583 16.4996ZM26.708 29.6246C26.1311 29.6246 25.5672 29.4535 25.0876 29.133C24.608 28.8125 24.2341 28.357 24.0134 27.824C23.7926 27.2911 23.7348 26.7047 23.8474 26.1389C23.9599 25.5731 24.2377 25.0534 24.6456 24.6455C25.0535 24.2376 25.5732 23.9598 26.139 23.8473C26.7048 23.7347 27.2912 23.7925 27.8242 24.0132C28.3571 24.234 28.8126 24.6078 29.1331 25.0875C29.4536 25.5671 29.6247 26.131 29.6247 26.7079C29.6247 27.4814 29.3174 28.2233 28.7704 28.7703C28.2234 29.3173 27.4816 29.6246 26.708 29.6246ZM28.1663 13.5829C28.7432 13.5829 29.3071 13.7539 29.7868 14.0744C30.2664 14.3949 30.6402 14.8504 30.861 15.3834C31.0817 15.9163 31.1395 16.5028 31.027 17.0686C30.9144 17.6343 30.6366 18.154 30.2287 18.5619C29.8208 18.9699 29.3011 19.2476 28.7354 19.3602C28.1696 19.4727 27.5831 19.415 27.0502 19.1942C26.5172 18.9734 26.0617 18.5996 25.7412 18.12C25.4207 17.6403 25.2497 17.0764 25.2497 16.4996C25.2497 15.726 25.557 14.9841 26.104 14.4372C26.6509 13.8902 27.3928 13.5829 28.1663 13.5829ZM4.83301 17.9579C4.25615 17.9579 3.69224 17.7868 3.2126 17.4663C2.73295 17.1459 2.35912 16.6903 2.13836 16.1574C1.91761 15.6244 1.85985 15.038 1.97239 14.4722C2.08493 13.9064 2.36271 13.3867 2.77062 12.9788C3.17852 12.5709 3.69822 12.2931 4.264 12.1806C4.82977 12.0681 5.41622 12.1258 5.94917 12.3466C6.48212 12.5673 6.93764 12.9412 7.25813 13.4208C7.57862 13.9004 7.74968 14.4644 7.74968 15.0412C7.74968 15.8148 7.44239 16.5566 6.8954 17.1036C6.34842 17.6506 5.60656 17.9579 4.83301 17.9579ZM32.5413 9.20789C32.5413 9.49632 32.4558 9.77827 32.2956 10.0181C32.1353 10.2579 31.9076 10.4448 31.6411 10.5552C31.3746 10.6656 31.0814 10.6945 30.7985 10.6382C30.5156 10.5819 30.2558 10.443 30.0518 10.2391C29.8479 10.0351 29.709 9.77528 29.6527 9.49239C29.5964 9.2095 29.6253 8.91628 29.7357 8.64981C29.8461 8.38333 30.033 8.15557 30.2728 7.99533C30.5126 7.83508 30.7946 7.74955 31.083 7.74955C31.4698 7.74955 31.8407 7.9032 32.1142 8.17669C32.3877 8.45018 32.5413 8.82111 32.5413 9.20789ZM1.91634 20.8746C2.20477 20.8746 2.48673 20.9601 2.72655 21.1203C2.96637 21.2806 3.15329 21.5083 3.26367 21.7748C3.37405 22.0413 3.40293 22.3345 3.34666 22.6174C3.29039 22.9003 3.15149 23.1601 2.94754 23.3641C2.74359 23.568 2.48374 23.7069 2.20085 23.7632C1.91796 23.8195 1.62474 23.7906 1.35826 23.6802C1.09179 23.5698 0.864027 23.3829 0.703783 23.1431C0.54354 22.9033 0.45801 22.6213 0.45801 22.3329C0.45801 21.9461 0.611655 21.5752 0.885146 21.3017C1.15864 21.0282 1.52957 20.8746 1.91634 20.8746Z" fill="black"/>
</svg>
