<svg width="27" height="33" viewBox="0 0 27 33" fill="none" xmlns="http://www.w3.org/2000/svg">
<path d="M25.1667 4.83325C19.9035 4.83325 14.429 0.790752 14.375 0.749919C14.1226 0.560595 13.8155 0.458252 13.5 0.458252C13.1845 0.458252 12.8774 0.560595 12.625 0.749919C12.571 0.790752 7.09646 4.83325 1.83333 4.83325C1.44656 4.83325 1.07563 4.9869 0.802136 5.26039C0.528645 5.53388 0.375 5.90481 0.375 6.29158C0.375 7.16658 0.520834 27.7714 12.9881 32.4497C13.3175 32.5715 13.6796 32.5715 14.009 32.4497C26.4792 27.7714 26.625 7.16658 26.625 6.29158C26.625 5.90481 26.4714 5.53388 26.1979 5.26039C25.9244 4.9869 25.5534 4.83325 25.1667 4.83325ZM13.5 29.5112C5.04167 25.8333 3.59062 12.0855 3.34271 7.66679C6.98214 7.11322 10.4522 5.75459 13.5 3.68992C16.5478 5.75459 20.0179 7.11322 23.6573 7.66679C23.4167 12.0855 21.9583 25.8333 13.5 29.5112ZM7.66667 15.0416C7.66667 16.1953 8.00879 17.3231 8.64976 18.2824C9.29074 19.2417 10.2018 19.9894 11.2677 20.4309C12.3336 20.8724 13.5065 20.9879 14.638 20.7628C15.7696 20.5378 16.809 19.9822 17.6248 19.1664C18.4406 18.3506 18.9962 17.3112 19.2212 16.1796C19.4463 15.0481 19.3308 13.8752 18.8893 12.8093C18.4478 11.7434 17.7001 10.8323 16.7408 10.1913C15.7815 9.55037 14.6537 9.20825 13.5 9.20825C11.9529 9.20825 10.4692 9.82283 9.37521 10.9168C8.28125 12.0108 7.66667 13.4945 7.66667 15.0416ZM16.4167 15.0416C16.4167 15.6184 16.2456 16.1824 15.9251 16.662C15.6046 17.1416 15.1491 17.5155 14.6162 17.7362C14.0832 17.957 13.4968 18.0147 12.931 17.9022C12.3652 17.7897 11.8455 17.5119 11.4376 17.104C11.0297 16.6961 10.7519 16.1764 10.6394 15.6106C10.5268 15.0448 10.5846 14.4584 10.8054 13.9254C11.0261 13.3925 11.3999 12.937 11.8796 12.6165C12.3592 12.296 12.9231 12.1249 13.5 12.1249C14.2735 12.1249 15.0154 12.4322 15.5624 12.9792C16.1094 13.5262 16.4167 14.268 16.4167 15.0416Z" fill="black"/>
</svg>
