<svg width="27" height="33" viewBox="0 0 27 33" fill="none" xmlns="http://www.w3.org/2000/svg">
<path d="M25.1667 3.37492C25.5534 3.37492 25.9244 3.22127 26.1979 2.94778C26.4714 2.67429 26.625 2.30336 26.625 1.91659C26.625 1.52981 26.4714 1.15888 26.1979 0.885388C25.9244 0.611897 25.5534 0.458252 25.1667 0.458252H1.83333C1.44656 0.458252 1.07563 0.611897 0.802136 0.885388C0.528645 1.15888 0.375 1.52981 0.375 1.91659C0.375 2.30336 0.528645 2.67429 0.802136 2.94778C1.07563 3.22127 1.44656 3.37492 1.83333 3.37492H3.36312C3.57604 6.05242 4.44667 11.7603 8.02104 15.0416C4.25125 18.7035 3.48417 26.3203 3.33104 29.6249H1.83333C1.44656 29.6249 1.07563 29.7786 0.802136 30.0521C0.528645 30.3255 0.375 30.6965 0.375 31.0833C0.375 31.47 0.528645 31.841 0.802136 32.1145C1.07563 32.3879 1.44656 32.5416 1.83333 32.5416H25.1667C25.5534 32.5416 25.9244 32.3879 26.1979 32.1145C26.4714 31.841 26.625 31.47 26.625 31.0833C26.625 30.6965 26.4714 30.3255 26.1979 30.0521C25.9244 29.7786 25.5534 29.6249 25.1667 29.6249H23.669C23.5158 26.3233 22.7488 18.7064 18.979 15.0416C22.5533 11.7574 23.424 6.0495 23.6369 3.37492H25.1667ZM15.8042 13.767C15.5725 13.8957 15.3802 14.085 15.2481 14.3147C15.116 14.5445 15.0489 14.8058 15.0542 15.0708C15.0594 15.3358 15.1368 15.5943 15.2779 15.8186C15.419 16.0429 15.6186 16.2245 15.8552 16.3439C19.4092 18.1347 20.5219 25.5474 20.7479 29.6249H6.25208C6.47229 25.5416 7.59083 18.1347 11.1448 16.3439C11.3814 16.2245 11.581 16.0429 11.7221 15.8186C11.8632 15.5943 11.9406 15.3358 11.9458 15.0708C11.9511 14.8058 11.884 14.5445 11.7519 14.3147C11.6198 14.085 11.4275 13.8957 11.1958 13.767C7.49313 11.7122 6.53938 6.06409 6.29292 3.37492H20.7071C20.4606 6.06409 19.5069 11.7122 15.8042 13.767ZM13.5 17.9583C13.5 17.9583 17.875 21.4583 17.875 23.2083V28.1666H9.125V23.2083C9.125 21.4583 13.5 17.9583 13.5 17.9583Z" fill="black"/>
</svg>
