<svg width="631" height="1263" viewBox="0 0 631 1263" fill="none" xmlns="http://www.w3.org/2000/svg">
<path d="M-395.188 631.5C-395.188 413.435 -218.565 236.812 -0.5 236.812C217.565 236.812 394.188 413.435 394.188 631.5C394.188 849.565 217.565 1026.19 -0.5 1026.19C-218.565 1026.19 -395.188 849.565 -395.188 631.5ZM309.576 691.197C313.277 671.709 315.25 651.974 315.25 631.5C315.25 540.722 277.015 459.071 215.838 401.348L121.606 531.348C143.808 558.483 157.375 593.511 157.375 631.5C157.375 634.953 155.155 638.16 157.128 641.367L309.576 691.197ZM132.46 716.358C111.246 749.66 77.9442 774.328 38.722 782.221L36.7487 944.783C148.001 931.216 240.013 861.899 285.155 766.187L132.46 716.358ZM-42.1888 944.783L-40.2155 782.221C-79.1909 774.328 -112.493 749.66 -133.46 716.358L-286.155 766.187C-241.013 861.899 -149.248 931.216 -42.1888 944.783ZM-158.128 641.367C-158.375 638.16 -158.375 634.953 -158.375 631.5C-158.375 593.511 -144.808 558.483 -122.606 531.348L-216.838 401.348C-278.015 459.071 -316.25 540.722 -316.25 629.28C-316.25 651.974 -314.277 671.709 -310.576 691.197L-158.128 641.367ZM-58.7164 484.726C-40.7088 477.572 -20.9744 473.625 -0.5 473.625C19.9744 473.625 39.7088 477.572 57.7164 484.726L151.948 354.972C106.806 330.057 54.7562 315.75 -0.5 315.75C-55.7562 315.75 -107.806 330.057 -152.948 354.972L-58.7164 484.726ZM-0.5 552.562C-44.1623 552.562 -79.4375 587.838 -79.4375 631.5C-79.4375 675.162 -44.1623 710.438 -0.5 710.438C43.1623 710.438 78.4375 675.162 78.4375 631.5C78.4375 587.838 43.1623 552.562 -0.5 552.562ZM631 631.5C631 980.305 348.305 1263 -0.5 1263C-349.305 1263 -632 980.305 -632 631.5C-632 282.695 -349.305 0 -0.5 0C348.305 0 631 282.695 631 631.5ZM-0.5 78.9375C-305.643 78.9375 -553.062 326.357 -553.062 631.5C-553.062 936.643 -305.643 1184.06 -0.5 1184.06C304.643 1184.06 552.062 936.643 552.062 631.5C552.062 326.357 304.643 78.9375 -0.5 78.9375Z" fill="#C9161D"/>
</svg>
