<svg width="20" height="26" viewBox="0 0 20 26" fill="none" xmlns="http://www.w3.org/2000/svg">
<path d="M10 0.5C10 0.5 5 4.25 0 4.25C0 4.25 0 21.75 10 25.5C20 21.75 20 4.25 20 4.25C15 4.25 10 0.5 10 0.5ZM10 15.5C9.25832 15.5 8.5333 15.2801 7.91661 14.868C7.29993 14.456 6.81928 13.8703 6.53545 13.1851C6.25162 12.4998 6.17736 11.7458 6.32205 11.0184C6.46675 10.291 6.8239 9.6228 7.34835 9.09835C7.8728 8.5739 8.54098 8.21675 9.26841 8.07205C9.99584 7.92736 10.7498 8.00162 11.4351 8.28545C12.1203 8.56928 12.706 9.04993 13.118 9.66661C13.5301 10.2833 13.75 11.0083 13.75 11.75C13.75 12.7446 13.3549 13.6984 12.6517 14.4017C11.9484 15.1049 10.9946 15.5 10 15.5V15.5Z" fill="white"/>
</svg>
