<svg width="20" height="26" viewBox="0 0 20 26" fill="none" xmlns="http://www.w3.org/2000/svg">
<path d="M20 6.75H13.75V0.5L20 6.75ZM11.25 0.5V9.25H20V24.25C20 24.5815 19.8683 24.8995 19.6339 25.1339C19.3995 25.3683 19.0815 25.5 18.75 25.5H1.25C0.918479 25.5 0.600537 25.3683 0.366117 25.1339C0.131696 24.8995 0 24.5815 0 24.25V1.75C0 1.41848 0.131696 1.10054 0.366117 0.866116C0.600537 0.631696 0.918479 0.5 1.25 0.5H11.25ZM8.6725 16.3088L7.0475 14.9562C6.79106 14.7641 6.47063 14.6778 6.15237 14.7151C5.83411 14.7524 5.54234 14.9105 5.33731 15.1568C5.13228 15.403 5.02966 15.7186 5.05063 16.0384C5.0716 16.3581 5.21456 16.6576 5.45 16.875L7.95 18.9575C8.18959 19.1571 8.49514 19.26 8.80666 19.2458C9.11818 19.2317 9.41318 19.1017 9.63375 18.8812L14.6337 13.8812C14.8614 13.6455 14.9874 13.3297 14.9846 13.002C14.9817 12.6743 14.8503 12.3607 14.6185 12.129C14.3868 11.8972 14.0732 11.7658 13.7455 11.7629C13.4178 11.7601 13.102 11.8861 12.8663 12.1138L8.6725 16.3088Z" fill="white"/>
</svg>
