<svg width="27" height="33" viewBox="0 0 27 33" fill="none" xmlns="http://www.w3.org/2000/svg">
<path d="M25.1667 3.37467C25.5534 3.37467 25.9244 3.22103 26.1979 2.94754C26.4714 2.67405 26.625 2.30312 26.625 1.91634C26.625 1.52957 26.4714 1.15863 26.1979 0.885144C25.9244 0.611653 25.5534 0.458008 25.1667 0.458008H1.83333C1.44656 0.458008 1.07563 0.611653 0.802136 0.885144C0.528645 1.15863 0.375 1.52957 0.375 1.91634C0.375 2.30312 0.528645 2.67405 0.802136 2.94754C1.07563 3.22103 1.44656 3.37467 1.83333 3.37467H3.36312C3.57604 6.05218 4.44667 11.7601 8.02104 15.0413C4.25125 18.7032 3.48417 26.3201 3.33104 29.6247H1.83333C1.44656 29.6247 1.07563 29.7783 0.802136 30.0518C0.528645 30.3253 0.375 30.6962 0.375 31.083C0.375 31.4698 0.528645 31.8407 0.802136 32.1142C1.07563 32.3877 1.44656 32.5413 1.83333 32.5413H25.1667C25.5534 32.5413 25.9244 32.3877 26.1979 32.1142C26.4714 31.8407 26.625 31.4698 26.625 31.083C26.625 30.6962 26.4714 30.3253 26.1979 30.0518C25.9244 29.7783 25.5534 29.6247 25.1667 29.6247H23.669C23.5158 26.323 22.7488 18.7061 18.979 15.0413C22.5533 11.7572 23.424 6.04926 23.6369 3.37467H25.1667ZM15.8042 13.7668C15.5725 13.8954 15.3802 14.0848 15.2481 14.3145C15.116 14.5442 15.0489 14.8056 15.0542 15.0706C15.0594 15.3355 15.1368 15.594 15.2779 15.8183C15.419 16.0426 15.6186 16.2242 15.8552 16.3436C19.4092 18.1345 20.5219 25.5472 20.7479 29.6247H6.25208C6.47229 25.5413 7.59083 18.1345 11.1448 16.3436C11.3814 16.2242 11.581 16.0426 11.7221 15.8183C11.8632 15.594 11.9406 15.3355 11.9458 15.0706C11.9511 14.8056 11.884 14.5442 11.7519 14.3145C11.6198 14.0848 11.4275 13.8954 11.1958 13.7668C7.49313 11.712 6.53938 6.06384 6.29292 3.37467H20.7071C20.4606 6.06384 19.5069 11.712 15.8042 13.7668V13.7668ZM13.5 17.958C13.5 17.958 17.875 21.458 17.875 23.208V28.1663H9.125V23.208C9.125 21.458 13.5 17.958 13.5 17.958Z" fill="black"/>
</svg>
