<svg width="26" height="26" viewBox="0 0 26 26" fill="none" xmlns="http://www.w3.org/2000/svg">
<path d="M3.00002 13C3.00002 13.3315 2.86832 13.6495 2.6339 13.8839C2.39948 14.1183 2.08154 14.25 1.75002 14.25C1.4185 14.25 1.10055 14.1183 0.866134 13.8839C0.631714 13.6495 0.500018 13.3315 0.500018 13C0.496057 10.6446 1.15883 8.33609 2.41171 6.34149C3.66459 4.34688 5.45642 2.74761 7.58002 1.72856C9.70363 0.709513 12.0723 0.31231 14.4121 0.582874C16.752 0.853437 18.9675 1.78072 20.8025 3.25751V1.44751C20.8025 1.11599 20.9342 0.798047 21.1686 0.563626C21.4031 0.329206 21.721 0.19751 22.0525 0.19751C22.384 0.19751 22.702 0.329206 22.9364 0.563626C23.1708 0.798047 23.3025 1.11599 23.3025 1.44751V6.44751C23.3025 6.77903 23.1708 7.09697 22.9364 7.33139C22.702 7.56581 22.384 7.69751 22.0525 7.69751H17.0525C16.721 7.69751 16.4031 7.56581 16.1686 7.33139C15.9342 7.09697 15.8025 6.77903 15.8025 6.44751C15.8025 6.11599 15.9342 5.79805 16.1686 5.56363C16.4031 5.32921 16.721 5.19751 17.0525 5.19751H19.2313C17.7626 4.01864 15.9904 3.27926 14.1194 3.06477C12.2484 2.85028 10.3549 3.16943 8.65759 3.98535C6.96025 4.80127 5.52834 6.08069 4.52724 7.67583C3.52614 9.27096 2.99668 11.1168 3.00002 13ZM24.25 11.75C23.9185 11.75 23.6006 11.8817 23.3661 12.1161C23.1317 12.3505 23 12.6685 23 13C23.0034 14.8833 22.4739 16.7291 21.4728 18.3242C20.4717 19.9193 19.0398 21.1987 17.3425 22.0147C15.6451 22.8306 13.7516 23.1497 11.8806 22.9352C10.0096 22.7208 8.23742 21.9814 6.76877 20.8025H8.94627C9.27779 20.8025 9.59573 20.6708 9.83015 20.4364C10.0646 20.202 10.1963 19.884 10.1963 19.5525C10.1963 19.221 10.0646 18.903 9.83015 18.6686C9.59573 18.4342 9.27779 18.3025 8.94627 18.3025H3.94627C3.61475 18.3025 3.2968 18.4342 3.06238 18.6686C2.82796 18.903 2.69627 19.221 2.69627 19.5525V24.5525C2.69627 24.884 2.82796 25.202 3.06238 25.4364C3.2968 25.6708 3.61475 25.8025 3.94627 25.8025C4.27779 25.8025 4.59573 25.6708 4.83015 25.4364C5.06457 25.202 5.19627 24.884 5.19627 24.5525V22.7425C7.0314 24.2192 9.24696 25.1463 11.5868 25.4168C13.9267 25.6873 16.2954 25.2901 18.419 24.2711C20.5427 23.2521 22.3346 21.6529 23.5876 19.6584C24.8407 17.6639 25.5037 15.3555 25.5 13C25.5 12.6685 25.3683 12.3505 25.1339 12.1161C24.8995 11.8817 24.5815 11.75 24.25 11.75Z" fill="white"/>
</svg>
