<svg width="28" height="28" viewBox="0 0 28 28" fill="none" xmlns="http://www.w3.org/2000/svg">
<path d="M4 7.75C4.74168 7.75 5.4667 7.53007 6.08339 7.11801C6.70007 6.70596 7.18072 6.12029 7.46455 5.43506C7.74838 4.74984 7.82264 3.99584 7.67794 3.26841C7.53325 2.54098 7.1761 1.8728 6.65165 1.34835C6.1272 0.823904 5.45902 0.466751 4.73159 0.322057C4.00416 0.177362 3.25016 0.251625 2.56494 0.535453C1.87971 0.819282 1.29404 1.29993 0.881989 1.91661C0.469934 2.5333 0.25 3.25832 0.25 4C0.25 4.99456 0.645088 5.94839 1.34835 6.65165C2.05161 7.35491 3.00544 7.75 4 7.75V7.75ZM4 2.75C4.24723 2.75 4.4889 2.82331 4.69446 2.96066C4.90002 3.09802 5.06024 3.29324 5.15485 3.52165C5.24946 3.75006 5.27421 4.00139 5.22598 4.24386C5.17775 4.48634 5.0587 4.70907 4.88388 4.88389C4.70907 5.0587 4.48634 5.17775 4.24386 5.22598C4.00139 5.27422 3.75005 5.24946 3.52165 5.15485C3.29324 5.06024 3.09801 4.90003 2.96066 4.69446C2.82331 4.4889 2.75 4.24723 2.75 4C2.75 3.66848 2.8817 3.35054 3.11612 3.11612C3.35054 2.8817 3.66848 2.75 4 2.75V2.75ZM4 17.75C4.74168 17.75 5.4667 17.5301 6.08339 17.118C6.70007 16.706 7.18072 16.1203 7.46455 15.4351C7.74838 14.7498 7.82264 13.9958 7.67794 13.2684C7.53325 12.541 7.1761 11.8728 6.65165 11.3484C6.1272 10.8239 5.45902 10.4668 4.73159 10.3221C4.00416 10.1774 3.25016 10.2516 2.56494 10.5355C1.87971 10.8193 1.29404 11.2999 0.881989 11.9166C0.469934 12.5333 0.25 13.2583 0.25 14C0.25 14.9946 0.645088 15.9484 1.34835 16.6517C2.05161 17.3549 3.00544 17.75 4 17.75ZM4 12.75C4.24723 12.75 4.4889 12.8233 4.69446 12.9607C4.90002 13.098 5.06024 13.2932 5.15485 13.5216C5.24946 13.7501 5.27421 14.0014 5.22598 14.2439C5.17775 14.4863 5.0587 14.7091 4.88388 14.8839C4.70907 15.0587 4.48634 15.1778 4.24386 15.226C4.00139 15.2742 3.75005 15.2495 3.52165 15.1549C3.29324 15.0602 3.09801 14.9 2.96066 14.6945C2.82331 14.4889 2.75 14.2472 2.75 14C2.75 13.6685 2.8817 13.3505 3.11612 13.1161C3.35054 12.8817 3.66848 12.75 4 12.75V12.75ZM4 27.75C4.74168 27.75 5.4667 27.5301 6.08339 27.118C6.70007 26.706 7.18072 26.1203 7.46455 25.4351C7.74838 24.7498 7.82264 23.9958 7.67794 23.2684C7.53325 22.541 7.1761 21.8728 6.65165 21.3484C6.1272 20.8239 5.45902 20.4668 4.73159 20.3221C4.00416 20.1774 3.25016 20.2516 2.56494 20.5355C1.87971 20.8193 1.29404 21.2999 0.881989 21.9166C0.469934 22.5333 0.25 23.2583 0.25 24C0.25 24.9946 0.645088 25.9484 1.34835 26.6517C2.05161 27.3549 3.00544 27.75 4 27.75ZM4 22.75C4.24723 22.75 4.4889 22.8233 4.69446 22.9607C4.90002 23.098 5.06024 23.2932 5.15485 23.5216C5.24946 23.7501 5.27421 24.0014 5.22598 24.2439C5.17775 24.4863 5.0587 24.7091 4.88388 24.8839C4.70907 25.0587 4.48634 25.1778 4.24386 25.226C4.00139 25.2742 3.75005 25.2495 3.52165 25.1549C3.29324 25.0602 3.09801 24.9 2.96066 24.6945C2.82331 24.4889 2.75 24.2472 2.75 24C2.75 23.6685 2.8817 23.3505 3.11612 23.1161C3.35054 22.8817 3.66848 22.75 4 22.75V22.75ZM27.75 4C27.75 4.33152 27.6183 4.64946 27.3839 4.88389C27.1495 5.11831 26.8315 5.25 26.5 5.25H11.5C11.1685 5.25 10.8505 5.11831 10.6161 4.88389C10.3817 4.64946 10.25 4.33152 10.25 4C10.25 3.66848 10.3817 3.35054 10.6161 3.11612C10.8505 2.8817 11.1685 2.75 11.5 2.75H26.5C26.8315 2.75 27.1495 2.8817 27.3839 3.11612C27.6183 3.35054 27.75 3.66848 27.75 4ZM27.75 14C27.75 14.3315 27.6183 14.6495 27.3839 14.8839C27.1495 15.1183 26.8315 15.25 26.5 15.25H11.5C11.1685 15.25 10.8505 15.1183 10.6161 14.8839C10.3817 14.6495 10.25 14.3315 10.25 14C10.25 13.6685 10.3817 13.3505 10.6161 13.1161C10.8505 12.8817 11.1685 12.75 11.5 12.75H26.5C26.8315 12.75 27.1495 12.8817 27.3839 13.1161C27.6183 13.3505 27.75 13.6685 27.75 14ZM27.75 24C27.75 24.3315 27.6183 24.6495 27.3839 24.8839C27.1495 25.1183 26.8315 25.25 26.5 25.25H11.5C11.1685 25.25 10.8505 25.1183 10.6161 24.8839C10.3817 24.6495 10.25 24.3315 10.25 24C10.25 23.6685 10.3817 23.3505 10.6161 23.1161C10.8505 22.8817 11.1685 22.75 11.5 22.75H26.5C26.8315 22.75 27.1495 22.8817 27.3839 23.1161C27.6183 23.3505 27.75 23.6685 27.75 24Z" fill="white"/>
</svg>
