<svg width="26" height="26" viewBox="0 0 26 26" fill="none" xmlns="http://www.w3.org/2000/svg">
<path d="M21.75 1.75C21.75 1.41848 21.6183 1.10054 21.3839 0.866116C21.1495 0.631696 20.8315 0.5 20.5 0.5C20.1685 0.5 19.8505 0.631696 19.6161 0.866116C19.3817 1.10054 19.25 1.41848 19.25 1.75V5.5L13 0.5L0.5 10.5H3V25.5H10.5V20.5C10.5 19.837 10.7634 19.2011 11.2322 18.7322C11.7011 18.2634 12.337 18 13 18C13.663 18 14.2989 18.2634 14.7678 18.7322C15.2366 19.2011 15.5 19.837 15.5 20.5V25.5H23V10.5H25.5L21.75 7.5V1.75ZM8 20.5H5.5V18H8V20.5ZM8 15.5H5.5V13H8V15.5ZM15.5 15.5H10.5V13H15.5V15.5ZM20.5 20.5H18V18H20.5V20.5ZM20.5 15.5H18V13H20.5V15.5Z" fill="white"/>
</svg>
