<svg width="22" height="22" viewBox="0 0 22 22" fill="none" xmlns="http://www.w3.org/2000/svg">
<path d="M21.2112 2.55367L8.71123 13.8037C8.4733 14.0178 8.16227 14.1326 7.84226 14.1242C7.52224 14.1158 7.21763 13.985 6.99123 13.7587L0.741229 7.50867C0.621842 7.39336 0.526614 7.25543 0.461103 7.10292C0.395591 6.95042 0.361109 6.78639 0.359666 6.62042C0.358224 6.45444 0.389851 6.28984 0.452702 6.13622C0.515553 5.9826 0.60837 5.84304 0.725736 5.72567C0.843102 5.60831 0.982666 5.51549 1.13629 5.45264C1.28991 5.38979 1.45451 5.35816 1.62048 5.3596C1.78646 5.36105 1.95048 5.39553 2.10298 5.46104C2.25549 5.52655 2.39342 5.62178 2.50873 5.74117L7.91998 11.1524L19.545 0.696166C19.6663 0.582519 19.8091 0.49421 19.9649 0.436406C20.1208 0.378603 20.2866 0.352466 20.4527 0.359526C20.6187 0.366587 20.7818 0.406702 20.9321 0.477524C21.0825 0.548346 21.2173 0.648453 21.3285 0.771985C21.4397 0.895518 21.5252 1.04 21.5799 1.19696C21.6346 1.35393 21.6575 1.52023 21.6472 1.68614C21.6368 1.85205 21.5935 2.01423 21.5197 2.16319C21.4459 2.31215 21.3432 2.4449 21.2175 2.55367H21.2112ZM19.5387 8.19617L7.91998 18.6524L2.50873 13.2412C2.27298 13.0135 1.95722 12.8875 1.62948 12.8903C1.30173 12.8932 0.988216 13.0246 0.756456 13.2564C0.524696 13.4882 0.393235 13.8017 0.390387 14.1294C0.387539 14.4572 0.513532 14.7729 0.741229 15.0087L6.99123 21.2587C7.21763 21.485 7.52224 21.6158 7.84226 21.6242C8.16227 21.6326 8.4733 21.5178 8.71123 21.3037L21.2112 10.0537C21.4501 9.82994 21.5916 9.52147 21.6055 9.19452C21.6194 8.86757 21.5045 8.54821 21.2856 8.30502C21.0666 8.06183 20.761 7.91421 20.4344 7.89385C20.1078 7.8735 19.7862 7.98204 19.5387 8.19617V8.19617Z" fill="white"/>
</svg>
