<svg width="24" height="26" viewBox="0 0 24 26" fill="none" xmlns="http://www.w3.org/2000/svg">
<path d="M22 9.25H18.25V6.75C18.25 5.0924 17.5915 3.50269 16.4194 2.33058C15.2473 1.15848 13.6576 0.5 12 0.5C10.3424 0.5 8.75269 1.15848 7.58058 2.33058C6.40848 3.50269 5.75 5.0924 5.75 6.75V9.25H2L0.75 25.5H23.25L22 9.25ZM15.75 9.25H8.25V6.75C8.25 5.75544 8.64509 4.80161 9.34835 4.09835C10.0516 3.39509 11.0054 3 12 3C12.9946 3 13.9484 3.39509 14.6517 4.09835C15.3549 4.80161 15.75 5.75544 15.75 6.75V9.25Z" fill="white"/>
</svg>
