<svg width="35" height="35" viewBox="0 0 35 35" fill="none" xmlns="http://www.w3.org/2000/svg">
<path d="M23.3331 1.45831C21.2453 1.45782 19.2082 2.10155 17.4998 3.30164C16.3321 2.47407 15.0035 1.90127 13.6001 1.62044C12.1967 1.33961 10.7499 1.35702 9.35368 1.67154C7.95745 1.98605 6.64296 2.59065 5.49552 3.44608C4.34809 4.30151 3.39335 5.38866 2.69328 6.63697C1.9932 7.88528 1.56344 9.26684 1.43189 10.692C1.30033 12.1172 1.46993 13.554 1.92966 14.9094C2.38939 16.2648 3.12898 17.5083 4.10043 18.5594C5.07189 19.6104 6.25349 20.4454 7.56855 21.0102C7.21185 22.5098 7.19939 24.0707 7.5321 25.5759C7.86482 27.081 8.53407 28.4912 9.48965 29.7008C10.4452 30.9103 11.6623 31.8877 13.0496 32.5597C14.4369 33.2317 15.9583 33.5808 17.4998 33.5808C19.0413 33.5808 20.5627 33.2317 21.95 32.5597C23.3373 31.8877 24.5544 30.9103 25.51 29.7008C26.4655 28.4912 27.1348 27.081 27.4675 25.5759C27.8002 24.0707 27.7878 22.5098 27.431 21.0102C29.5741 20.0671 31.3278 18.4159 32.3982 16.3336C33.4686 14.2512 33.7906 11.8641 33.3103 9.57255C32.83 7.28096 31.5766 5.22412 29.7601 3.74682C27.9436 2.26951 25.6745 1.46153 23.3331 1.45831ZM18.7846 13.2154C17.9323 13.0948 17.0673 13.0948 16.215 13.2154C15.9868 12.2012 15.9836 11.1493 16.2055 10.1337C16.4275 9.11804 16.8693 8.1634 17.4998 7.33685C18.1303 8.1634 18.5721 9.11804 18.7941 10.1337C19.016 11.1493 19.0128 12.2012 18.7846 13.2154ZM15.3036 17.9491C14.2144 18.596 12.9739 18.9441 11.7073 18.9583C12.4327 17.9962 13.3845 17.2283 14.4781 16.7227C14.7233 17.1509 14.9991 17.5608 15.3036 17.9491ZM20.5244 16.7183C21.6175 17.2255 22.5683 17.995 23.2923 18.9583C22.0261 18.9454 20.7856 18.5988 19.6961 17.9535C20.0018 17.5625 20.2787 17.1496 20.5244 16.7183ZM4.3748 11.6666C4.37712 9.73348 5.14609 7.88016 6.51304 6.51321C7.87999 5.14626 9.73331 4.37729 11.6665 4.37497C12.9469 4.38271 14.2022 4.73101 15.3036 5.38414C14.3567 6.58116 13.694 7.9776 13.3656 9.46809C13.0372 10.9586 13.0516 12.5042 13.4077 13.9883C11.4035 14.8741 9.7355 16.3781 8.64772 18.2802C7.37723 17.7024 6.29927 16.7721 5.54185 15.5997C4.78443 14.4274 4.37938 13.0623 4.3748 11.6666ZM24.7915 23.3333C24.796 24.3593 24.584 25.3747 24.1692 26.3132C23.7545 27.2516 23.1463 28.092 22.3846 28.7793C21.6228 29.4666 20.7246 29.9854 19.7486 30.3019C18.7726 30.6183 17.7408 30.7252 16.7207 30.6155C15.7005 30.5059 14.715 30.1822 13.8285 29.6656C12.9421 29.149 12.1746 28.4511 11.5763 27.6176C10.978 26.7841 10.5623 25.8337 10.3565 24.8286C10.1506 23.8234 10.1592 22.7862 10.3817 21.7846C12.8909 22.1251 15.4357 21.4984 17.4998 20.0316C19.5644 21.4974 22.1091 22.123 24.6179 21.7816C24.7316 22.2911 24.7898 22.8113 24.7915 23.3333ZM26.3577 18.2816C25.2703 16.3796 23.6021 14.8759 21.5977 13.9912C21.9536 12.5071 21.9679 10.9615 21.6395 9.47108C21.3111 7.98062 20.6486 6.58418 19.7019 5.38706C20.8012 4.7339 22.0544 4.38462 23.3331 4.37497C24.9969 4.37261 26.6113 4.94022 27.9076 5.98331C29.2038 7.02639 30.1036 8.48201 30.4572 10.1078C30.8108 11.7336 30.5968 13.4314 29.8509 14.9187C29.105 16.4059 27.8722 17.5928 26.3577 18.2816Z" fill="#A61C20"/>
</svg>
