<svg width="33" height="33" viewBox="0 0 33 33" fill="none" xmlns="http://www.w3.org/2000/svg">
<path d="M22.3331 0.458308C20.2453 0.457823 18.2082 1.10155 16.4998 2.30164C15.3321 1.47407 14.0035 0.901274 12.6001 0.620444C11.1967 0.339614 9.74991 0.357021 8.35368 0.671537C6.95745 0.986052 5.64296 1.59065 4.49552 2.44608C3.34809 3.30151 2.39335 4.38866 1.69328 5.63697C0.993204 6.88528 0.563444 8.26684 0.431889 9.692C0.300335 11.1172 0.469926 12.554 0.929656 13.9094C1.38939 15.2648 2.12898 16.5083 3.10043 17.5594C4.07189 18.6104 5.25349 19.4454 6.56855 20.0102C6.21185 21.5098 6.19939 23.0707 6.5321 24.5759C6.86482 26.081 7.53407 27.4912 8.48965 28.7008C9.44523 29.9103 10.6623 30.8877 12.0496 31.5597C13.4369 32.2317 14.9583 32.5808 16.4998 32.5808C18.0413 32.5808 19.5627 32.2317 20.95 31.5597C22.3373 30.8877 23.5544 29.9103 24.51 28.7008C25.4655 27.4912 26.1348 26.081 26.4675 24.5759C26.8002 23.0707 26.7878 21.5098 26.431 20.0102C28.5741 19.0671 30.3278 17.4159 31.3982 15.3336C32.4686 13.2512 32.7906 10.8641 32.3103 8.57255C31.83 6.28096 30.5766 4.22412 28.7601 2.74682C26.9436 1.26951 24.6745 0.461526 22.3331 0.458308ZM17.7846 12.2154C16.9323 12.0948 16.0673 12.0948 15.215 12.2154C14.9868 11.2012 14.9836 10.1493 15.2055 9.13365C15.4275 8.11804 15.8693 7.1634 16.4998 6.33685C17.1303 7.1634 17.5721 8.11804 17.7941 9.13365C18.016 10.1493 18.0128 11.2012 17.7846 12.2154ZM14.3036 16.9491C13.2144 17.596 11.9739 17.9441 10.7073 17.9583C11.4327 16.9962 12.3845 16.2283 13.4781 15.7227C13.7233 16.1509 13.9991 16.5608 14.3036 16.9491ZM19.5244 15.7183C20.6175 16.2255 21.5683 16.995 22.2923 17.9583C21.0261 17.9454 19.7856 17.5988 18.6961 16.9535C19.0018 16.5625 19.2787 16.1496 19.5244 15.7183ZM3.3748 10.6666C3.37712 8.73348 4.14609 6.88016 5.51304 5.51321C6.87999 4.14626 8.73331 3.37729 10.6665 3.37497C11.9469 3.38271 13.2022 3.73101 14.3036 4.38414C13.3567 5.58116 12.694 6.9776 12.3656 8.46809C12.0372 9.95858 12.0516 11.5042 12.4077 12.9883C10.4035 13.8741 8.7355 15.3781 7.64772 17.2802C6.37723 16.7024 5.29927 15.7721 4.54185 14.5997C3.78443 13.4274 3.37938 12.0623 3.3748 10.6666ZM23.7915 22.3333C23.796 23.3593 23.584 24.3747 23.1692 25.3132C22.7545 26.2516 22.1463 27.092 21.3846 27.7793C20.6228 28.4666 19.7246 28.9854 18.7486 29.3019C17.7726 29.6183 16.7408 29.7252 15.7207 29.6155C14.7005 29.5059 13.715 29.1822 12.8285 28.6656C11.9421 28.149 11.1746 27.4511 10.5763 26.6176C9.978 25.7841 9.56234 24.8337 9.35648 23.8286C9.15062 22.8234 9.15921 21.7862 9.38168 20.7846C11.8909 21.1251 14.4357 20.4984 16.4998 19.0316C18.5644 20.4974 21.1091 21.123 23.6179 20.7816C23.7316 21.2911 23.7898 21.8113 23.7915 22.3333ZM25.3577 17.2816C24.2703 15.3796 22.6021 13.8759 20.5977 12.9912C20.9536 11.5071 20.9679 9.96153 20.6395 8.47108C20.3111 6.98062 19.6486 5.58418 18.7019 4.38706C19.8012 3.7339 21.0544 3.38462 22.3331 3.37497C23.9969 3.37261 25.6113 3.94022 26.9076 4.98331C28.2038 6.02639 29.1036 7.48201 29.4572 9.1078C29.8108 10.7336 29.5968 12.4314 28.8509 13.9187C28.105 15.4059 26.8722 16.5928 25.3577 17.2816Z" fill="#A61C20"/>
</svg>
