<svg width="35" height="35" viewBox="0 0 35 35" fill="none" xmlns="http://www.w3.org/2000/svg">
<path d="M10.2082 16.0416C10.9292 16.0416 11.6341 16.2555 12.2337 16.6561C12.8332 17.0567 13.3005 17.6261 13.5765 18.2923C13.8524 18.9585 13.9246 19.6915 13.7839 20.3987C13.6433 21.106 13.296 21.7556 12.7862 22.2655C12.2763 22.7753 11.6267 23.1226 10.9194 23.2632C10.2122 23.4039 9.47916 23.3317 8.81297 23.0558C8.14678 22.7798 7.57738 22.3125 7.17677 21.713C6.77616 21.1134 6.56234 20.4085 6.56234 19.6875C6.56234 18.7205 6.94645 17.7932 7.63018 17.1095C8.3139 16.4257 9.24124 16.0416 10.2082 16.0416ZM10.2082 24.7916C8.2743 24.7916 6.41964 25.5599 5.05218 26.9273C3.68473 28.2948 2.9165 30.1494 2.9165 32.0833H17.4998C17.4998 31.1257 17.3112 30.1776 16.9448 29.2929C16.5784 28.4082 16.0413 27.6044 15.3642 26.9273C14.6871 26.2502 13.8832 25.7131 12.9986 25.3467C12.1139 24.9802 11.1657 24.7916 10.2082 24.7916ZM24.7915 23.3333C25.5126 23.3333 26.2175 23.1195 26.817 22.7189C27.4166 22.3183 27.8839 21.7489 28.1598 21.0827C28.4358 20.4165 28.508 19.6834 28.3673 18.9762C28.2266 18.269 27.8794 17.6193 27.3695 17.1095C26.8596 16.5996 26.21 16.2524 25.5028 16.1117C24.7955 15.971 24.0625 16.0432 23.3963 16.3192C22.7301 16.5951 22.1607 17.0624 21.7601 17.6619C21.3595 18.2615 21.1457 18.9664 21.1457 19.6875C21.1457 20.6544 21.5298 21.5817 22.2135 22.2655C22.8972 22.9492 23.8246 23.3333 24.7915 23.3333ZM24.7915 24.7916C22.8576 24.7916 21.003 25.5599 19.6355 26.9273C18.2681 28.2948 17.4998 30.1494 17.4998 32.0833H32.0832C32.0832 30.1494 31.3149 28.2948 29.9475 26.9273C28.58 25.5599 26.7254 24.7916 24.7915 24.7916ZM21.1457 6.56246C21.1457 5.84138 20.9318 5.1365 20.5312 4.53694C20.1306 3.93739 19.5612 3.47009 18.895 3.19415C18.2288 2.91821 17.4958 2.84601 16.7886 2.98668C16.0813 3.12736 15.4317 3.47459 14.9218 3.98447C14.412 4.49435 14.0647 5.14397 13.9241 5.85119C13.7834 6.55842 13.8556 7.29147 14.1315 7.95766C14.4075 8.62385 14.8748 9.19325 15.4743 9.59386C16.0739 9.99447 16.7788 10.2083 17.4998 10.2083C17.9786 10.2083 18.4527 10.114 18.895 9.93077C19.3374 9.74755 19.7393 9.479 20.0778 9.14045C20.4164 8.80191 20.6849 8.39999 20.8681 7.95766C21.0514 7.51533 21.1457 7.04124 21.1457 6.56246V6.56246ZM16.6963 18.9583H18.3005C18.4314 17.7756 18.8822 16.651 19.6045 15.7054C20.3268 14.7598 21.2932 14.029 22.3998 13.5916C21.0682 12.3542 19.3177 11.6664 17.4998 11.6664C15.682 11.6664 13.9315 12.3542 12.5998 13.5916C13.7059 14.0295 14.6717 14.7604 15.3935 15.706C16.1152 16.6516 16.5656 17.7759 16.6963 18.9583V18.9583Z" fill="#A61C20"/>
</svg>
