<svg width="35" height="35" viewBox="0 0 35 35" fill="none" xmlns="http://www.w3.org/2000/svg">
<path d="M10.9377 22.6042H3.64601C3.25924 22.6042 2.8883 22.7579 2.61481 23.0313C2.34132 23.3048 2.18768 23.6758 2.18768 24.0625V31.3542C2.18768 31.741 2.34132 32.1119 2.61481 32.3854C2.8883 32.6589 3.25924 32.8125 3.64601 32.8125H10.9377C11.3245 32.8125 11.6954 32.6589 11.9689 32.3854C12.2424 32.1119 12.396 31.741 12.396 31.3542V29.1667H17.5002C17.8869 29.1667 18.2579 29.0131 18.5314 28.7396C18.8049 28.4661 18.9585 28.0951 18.9585 27.7084C18.9585 27.3216 18.8049 26.9507 18.5314 26.6772C18.2579 26.4037 17.8869 26.25 17.5002 26.25H12.396V24.0625C12.396 23.6758 12.2424 23.3048 11.9689 23.0313C11.6954 22.7579 11.3245 22.6042 10.9377 22.6042ZM9.47934 29.8959H5.10434V25.5209H9.47934V29.8959ZM5.83351 12.918V18.9584C5.83351 19.3451 5.98716 19.7161 6.26065 19.9896C6.53414 20.2631 6.90507 20.4167 7.29184 20.4167C7.67862 20.4167 8.04955 20.2631 8.32304 19.9896C8.59653 19.7161 8.75018 19.3451 8.75018 18.9584V12.918C10.1249 12.563 11.323 11.7189 12.1198 10.5438C12.9167 9.36869 13.2576 7.94331 13.0787 6.53483C12.8998 5.12635 12.2133 3.83147 11.148 2.8929C10.0827 1.95434 8.71164 1.43652 7.29184 1.43652C5.87205 1.43652 4.50099 1.95434 3.43567 2.8929C2.37035 3.83147 1.6839 5.12635 1.505 6.53483C1.3261 7.94331 1.66703 9.36869 2.46388 10.5438C3.26073 11.7189 4.4588 12.563 5.83351 12.918ZM7.29184 4.37504C7.86871 4.37504 8.43261 4.5461 8.91226 4.86659C9.3919 5.18708 9.76574 5.6426 9.98649 6.17555C10.2072 6.7085 10.265 7.29494 10.1525 7.86072C10.0399 8.4265 9.76214 8.9462 9.35424 9.3541C8.94633 9.76201 8.42663 10.0398 7.86086 10.1523C7.29508 10.2649 6.70863 10.2071 6.17568 9.98636C5.64273 9.7656 5.18721 9.39176 4.86672 8.91212C4.54624 8.43248 4.37518 7.86857 4.37518 7.29171C4.37518 6.51816 4.68247 5.77629 5.22945 5.22931C5.77643 4.68233 6.51829 4.37504 7.29184 4.37504ZM29.1668 22.0821V17.5C29.1668 17.1133 29.0132 16.7423 28.7397 16.4688C28.4662 16.1954 28.0953 16.0417 27.7085 16.0417C27.3217 16.0417 26.9508 16.1954 26.6773 16.4688C26.4038 16.7423 26.2502 17.1133 26.2502 17.5V22.0821C24.8755 22.4371 23.6774 23.2812 22.8805 24.4563C22.0837 25.6314 21.7428 27.0568 21.9217 28.4653C22.1006 29.8737 22.787 31.1686 23.8523 32.1072C24.9177 33.0457 26.2887 33.5636 27.7085 33.5636C29.1283 33.5636 30.4994 33.0457 31.5647 32.1072C32.63 31.1686 33.3164 29.8737 33.4953 28.4653C33.6742 27.0568 33.3333 25.6314 32.5365 24.4563C31.7396 23.2812 30.5416 22.4371 29.1668 22.0821ZM27.7085 30.625C27.1316 30.625 26.5677 30.454 26.0881 30.1335C25.6085 29.813 25.2346 29.3575 25.0139 28.8245C24.7931 28.2916 24.7353 27.7051 24.8479 27.1394C24.9604 26.5736 25.2382 26.0539 25.6461 25.646C26.054 25.2381 26.5737 24.9603 27.1395 24.8478C27.7053 24.7352 28.2917 24.793 28.8247 25.0137C29.3576 25.2345 29.8131 25.6083 30.1336 26.088C30.4541 26.5676 30.6252 27.1315 30.6252 27.7084C30.6252 28.4819 30.3179 29.2238 29.7709 29.7708C29.2239 30.3178 28.4821 30.625 27.7085 30.625ZM24.0627 12.3959H31.3543C31.7411 12.3959 32.112 12.2422 32.3855 11.9687C32.659 11.6952 32.8127 11.3243 32.8127 10.9375V3.64587C32.8127 3.2591 32.659 2.88817 32.3855 2.61468C32.112 2.34119 31.7411 2.18754 31.3543 2.18754H24.0627C23.6759 2.18754 23.305 2.34119 23.0315 2.61468C22.758 2.88817 22.6043 3.2591 22.6043 3.64587V5.83337H17.5002C17.1134 5.83337 16.7425 5.98702 16.469 6.26051C16.1955 6.534 16.0418 6.90493 16.0418 7.29171C16.0418 7.67848 16.1955 8.04941 16.469 8.3229C16.7425 8.5964 17.1134 8.75004 17.5002 8.75004H22.6043V10.9375C22.6043 11.3243 22.758 11.6952 23.0315 11.9687C23.305 12.2422 23.6759 12.3959 24.0627 12.3959ZM25.521 5.10421H29.896V9.47921H25.521V5.10421Z" fill="#A61C20"/>
</svg>
