<svg width="35" height="35" viewBox="0 0 35 35" fill="none" xmlns="http://www.w3.org/2000/svg">
<path d="M17.5 23.333C18.6538 23.333 19.7816 22.9909 20.7409 22.3499C21.7001 21.7089 22.4478 20.7979 22.8893 19.732C23.3308 18.6661 23.4464 17.4932 23.2213 16.3616C22.9962 15.2301 22.4406 14.1907 21.6248 13.3749C20.809 12.5591 19.7696 12.0035 18.6381 11.7784C17.5065 11.5533 16.3336 11.6689 15.2677 12.1104C14.2018 12.5519 13.2908 13.2996 12.6498 14.2589C12.0088 15.2181 11.6667 16.346 11.6667 17.4997C11.6667 19.0468 12.2813 20.5305 13.3752 21.6245C14.4692 22.7184 15.9529 23.333 17.5 23.333ZM17.5 14.583C18.0769 14.583 18.6408 14.7541 19.1204 15.0746C19.6001 15.395 19.9739 15.8506 20.1947 16.3835C20.4154 16.9165 20.4732 17.5029 20.3607 18.0687C20.2481 18.6345 19.9703 19.1542 19.5624 19.5621C19.1545 19.97 18.6348 20.2478 18.069 20.3603C17.5033 20.4728 16.9168 20.4151 16.3839 20.1943C15.8509 19.9736 15.3954 19.5997 15.0749 19.1201C14.7544 18.6404 14.5834 18.0765 14.5834 17.4997C14.5834 16.7261 14.8907 15.9843 15.4376 15.4373C15.9846 14.8903 16.7265 14.583 17.5 14.583ZM5.1042 18.7786L3.64586 19.623C3.31405 19.8144 3.02319 20.0693 2.78989 20.3731C2.55659 20.6769 2.38542 21.0237 2.28615 21.3937C2.18689 21.7637 2.16148 22.1496 2.21136 22.5294C2.26125 22.9091 2.38546 23.2754 2.5769 23.6072L4.74836 27.3668C4.93964 27.6991 5.19456 27.9904 5.49855 28.2241C5.80254 28.4578 6.14963 28.6293 6.51995 28.7287C6.89027 28.8281 7.27656 28.8536 7.65672 28.8035C8.03688 28.7535 8.40345 28.629 8.73545 28.4372L10.2084 27.5855C10.4331 27.4586 10.6874 27.3933 10.9455 27.3961C11.2036 27.3989 11.4564 27.4698 11.6784 27.6016C11.8976 27.7284 12.0796 27.9107 12.2063 28.13C12.333 28.3493 12.3999 28.5981 12.4002 28.8513V30.6247C12.4002 31.3982 12.7075 32.1401 13.2545 32.6871C13.8015 33.2341 14.5434 33.5413 15.3169 33.5413H19.6919C20.4655 33.5413 21.2073 33.2341 21.7543 32.6871C22.3013 32.1401 22.6086 31.3982 22.6086 30.6247V28.8484C22.6125 28.594 22.6823 28.3449 22.8112 28.1255C22.9401 27.906 23.1238 27.7238 23.3441 27.5966C23.5645 27.4693 23.8142 27.4014 24.0687 27.3995C24.3231 27.3975 24.5738 27.4616 24.7961 27.5855L26.2675 28.4343C26.9374 28.821 27.7335 28.9258 28.4807 28.7256C29.2279 28.5254 29.8649 28.0366 30.2517 27.3668L32.4217 23.6072C32.6131 23.2754 32.7374 22.9091 32.7872 22.5294C32.8371 22.1496 32.8117 21.7637 32.7124 21.3937C32.6132 21.0237 32.442 20.6769 32.2087 20.3731C31.9754 20.0693 31.6846 19.8144 31.3527 19.623L29.8944 18.7786C29.6682 18.6469 29.4814 18.4571 29.3532 18.2289C29.225 18.0007 29.1601 17.7424 29.1652 17.4807C29.1658 17.2252 29.2334 16.9744 29.3614 16.7532C29.4893 16.5321 29.6731 16.3485 29.8944 16.2207L31.3527 15.3763C31.6846 15.1849 31.9754 14.9301 32.2087 14.6263C32.442 14.3224 32.6132 13.9756 32.7124 13.6057C32.8117 13.2357 32.8371 12.8498 32.7872 12.47C32.7374 12.0902 32.6131 11.724 32.4217 11.3922L30.2488 7.63259C30.0575 7.30066 29.8027 7.00966 29.499 6.77621C29.1952 6.54277 28.8484 6.37145 28.4784 6.27205C28.1085 6.17265 27.7225 6.14711 27.3427 6.19689C26.9628 6.24667 26.5965 6.37079 26.2646 6.56217L24.7917 7.41238C24.5693 7.53676 24.3185 7.60121 24.0637 7.59941C23.809 7.59762 23.559 7.52964 23.3385 7.40215C23.1179 7.27465 22.9342 7.09202 22.8055 6.87216C22.6768 6.6523 22.6074 6.40276 22.6042 6.14801V4.37467C22.6042 3.60113 22.2969 2.85926 21.7499 2.31228C21.2029 1.7653 20.4611 1.45801 19.6875 1.45801H15.3125C14.539 1.45801 13.7971 1.7653 13.2501 2.31228C12.7032 2.85926 12.3959 3.60113 12.3959 4.37467V6.26176C12.3958 6.48062 12.3381 6.69561 12.2285 6.88506C12.119 7.07452 11.9614 7.23175 11.7717 7.34093L11.5471 7.47072C11.3573 7.57862 11.1427 7.63535 10.9244 7.63535C10.7061 7.63535 10.4915 7.57862 10.3017 7.47072L8.73545 6.56217C8.40368 6.37044 8.0374 6.24597 7.65751 6.19585C7.27762 6.14574 6.89158 6.17097 6.52145 6.2701C6.15131 6.36924 5.80434 6.54033 5.50036 6.77362C5.19638 7.0069 4.94134 7.29779 4.74982 7.62967L2.57982 11.3936C2.19341 12.0632 2.08863 12.8588 2.28853 13.6056C2.48842 14.3524 2.97663 14.9893 3.64586 15.3763L5.1042 16.2193C5.33018 16.3516 5.51684 16.5417 5.645 16.7701C5.77315 16.9984 5.83817 17.2568 5.83336 17.5186C5.83373 17.7743 5.76648 18.0255 5.63842 18.2468C5.51036 18.4681 5.32606 18.6516 5.1042 18.7786ZM6.56253 13.6934L5.1042 12.8505L7.27711 9.09093L8.84336 9.99509C9.47567 10.3585 10.1922 10.5497 10.9215 10.5497C11.6508 10.5497 12.3673 10.3585 12.9996 9.99509L13.2242 9.86676C13.8575 9.50132 14.3837 8.976 14.7501 8.34335C15.1166 7.71069 15.3106 6.99289 15.3125 6.26176V4.37467H19.6875V6.14801C19.6906 6.91485 19.8946 7.66749 20.2792 8.3309C20.6638 8.99431 21.2156 9.54531 21.8796 9.92894C22.5436 10.3126 23.2965 10.5155 24.0634 10.5173C24.8302 10.5192 25.5842 10.32 26.25 9.93968L27.7186 9.09093L29.8959 12.8505L28.4375 13.6934C27.7735 14.0823 27.2228 14.6381 26.8401 15.3057C26.4574 15.9733 26.256 16.7294 26.256 17.4989C26.256 18.2685 26.4574 19.0246 26.8401 19.6922C27.2228 20.3598 27.7735 20.9156 28.4375 21.3045L29.8959 22.1488L27.7259 25.9084L26.25 25.0597C25.5842 24.6793 24.8302 24.4801 24.0634 24.482C23.2965 24.4839 22.5436 24.6868 21.8796 25.0704C21.2156 25.454 20.6638 26.005 20.2792 26.6684C19.8946 27.3319 19.6906 28.0845 19.6875 28.8513V30.6247H15.3125V28.8513C15.3104 28.0842 15.1069 27.331 14.7225 26.6671C14.3381 26.0031 13.7862 25.4517 13.1219 25.0679C12.4576 24.6841 11.7042 24.4814 10.9371 24.4799C10.1699 24.4785 9.41575 24.6784 8.75003 25.0597L7.28149 25.9084L5.1042 22.1488L6.56253 21.3045C7.22656 20.9156 7.77729 20.3598 8.16 19.6922C8.5427 19.0246 8.74405 18.2685 8.74405 17.4989C8.74405 16.7294 8.5427 15.9733 8.16 15.3057C7.77729 14.6381 7.22656 14.0823 6.56253 13.6934Z" fill="black"/>
</svg>
