<svg width="35" height="35" viewBox="0 0 35 35" fill="none" xmlns="http://www.w3.org/2000/svg">
<path d="M29.1667 5.83301C23.9035 5.83301 18.429 1.79051 18.375 1.74967C18.1226 1.56035 17.8155 1.45801 17.5 1.45801C17.1845 1.45801 16.8774 1.56035 16.625 1.74967C16.571 1.79051 11.0965 5.83301 5.83333 5.83301C5.44656 5.83301 5.07563 5.98665 4.80214 6.26014C4.52865 6.53363 4.375 6.90457 4.375 7.29134C4.375 8.16634 4.52083 28.7711 16.9881 33.4495C17.3175 33.5713 17.6796 33.5713 18.009 33.4495C30.4792 28.7711 30.625 8.16634 30.625 7.29134C30.625 6.90457 30.4714 6.53363 30.1979 6.26014C29.9244 5.98665 29.5534 5.83301 29.1667 5.83301ZM17.5 30.5109C9.04167 26.833 7.59062 13.0853 7.34271 8.66655C10.9821 8.11297 14.4522 6.75434 17.5 4.68967C20.5478 6.75434 24.0179 8.11297 27.6573 8.66655C27.4167 13.0853 25.9583 26.833 17.5 30.5109ZM11.6667 16.0413C11.6667 17.1951 12.0088 18.3229 12.6498 19.2822C13.2907 20.2415 14.2018 20.9891 15.2677 21.4306C16.3336 21.8721 17.5065 21.9877 18.638 21.7626C19.7696 21.5375 20.809 20.9819 21.6248 20.1661C22.4406 19.3503 22.9962 18.3109 23.2212 17.1794C23.4463 16.0478 23.3308 14.8749 22.8893 13.809C22.4478 12.7431 21.7001 11.8321 20.7408 11.1911C19.7815 10.5501 18.6537 10.208 17.5 10.208C15.9529 10.208 14.4692 10.8226 13.3752 11.9166C12.2812 13.0105 11.6667 14.4942 11.6667 16.0413ZM20.4167 16.0413C20.4167 16.6182 20.2456 17.1821 19.9251 17.6618C19.6046 18.1414 19.1491 18.5152 18.6162 18.736C18.0832 18.9567 17.4968 19.0145 16.931 18.902C16.3652 18.7894 15.8455 18.5116 15.4376 18.1037C15.0297 17.6958 14.7519 17.1761 14.6394 16.6104C14.5268 16.0446 14.5846 15.4581 14.8054 14.9252C15.0261 14.3922 15.3999 13.9367 15.8796 13.6162C16.3592 13.2957 16.9231 13.1247 17.5 13.1247C18.2735 13.1247 19.0154 13.432 19.5624 13.9789C20.1094 14.5259 20.4167 15.2678 20.4167 16.0413Z" fill="black"/>
</svg>
