<svg width="31" height="33" viewBox="0 0 31 33" fill="none" xmlns="http://www.w3.org/2000/svg">
<path d="M15.5 22.3333C16.6538 22.3333 17.7816 21.9911 18.7409 21.3502C19.7001 20.7092 20.4478 19.7981 20.8893 18.7322C21.3308 17.6663 21.4464 16.4935 21.2213 15.3619C20.9962 14.2303 20.4406 13.1909 19.6248 12.3751C18.809 11.5593 17.7696 11.0038 16.6381 10.7787C15.5065 10.5536 14.3336 10.6691 13.2677 11.1106C12.2018 11.5521 11.2908 12.2998 10.6498 13.2591C10.0088 14.2184 9.6667 15.3462 9.6667 16.4999C9.6667 18.047 10.2813 19.5307 11.3752 20.6247C12.4692 21.7187 13.9529 22.3333 15.5 22.3333ZM15.5 13.5833C16.0769 13.5833 16.6408 13.7543 17.1204 14.0748C17.6001 14.3953 17.9739 14.8508 18.1947 15.3838C18.4154 15.9167 18.4732 16.5032 18.3607 17.0689C18.2481 17.6347 17.9703 18.1544 17.5624 18.5623C17.1545 18.9702 16.6348 19.248 16.069 19.3605C15.5033 19.4731 14.9168 19.4153 14.3839 19.1946C13.8509 18.9738 13.3954 18.6 13.0749 18.1203C12.7544 17.6407 12.5834 17.0768 12.5834 16.4999C12.5834 15.7264 12.8907 14.9845 13.4376 14.4375C13.9846 13.8905 14.7265 13.5833 15.5 13.5833ZM3.1042 17.7789L1.64586 18.6233C1.31405 18.8146 1.02319 19.0695 0.789889 19.3733C0.556588 19.6772 0.385419 20.024 0.286155 20.3939C0.186891 20.7639 0.161477 21.1498 0.211364 21.5296C0.261251 21.9094 0.385463 22.2756 0.576905 22.6074L2.74836 26.367C2.93964 26.6993 3.19456 26.9907 3.49855 27.2244C3.80254 27.4581 4.14963 27.6295 4.51995 27.729C4.89027 27.8284 5.27656 27.8538 5.65672 27.8038C6.03688 27.7537 6.40345 27.6293 6.73545 27.4374L8.20836 26.5858C8.43314 26.4589 8.68742 26.3936 8.94552 26.3964C9.20362 26.3992 9.45641 26.47 9.67836 26.6018C9.89756 26.7287 10.0796 26.9109 10.2063 27.1302C10.333 27.3496 10.3999 27.5983 10.4002 27.8516V29.6249C10.4002 30.3985 10.7075 31.1403 11.2545 31.6873C11.8015 32.2343 12.5434 32.5416 13.3169 32.5416H17.6919C18.4655 32.5416 19.2073 32.2343 19.7543 31.6873C20.3013 31.1403 20.6086 30.3985 20.6086 29.6249V27.8487C20.6125 27.5942 20.6823 27.3451 20.8112 27.1257C20.9401 26.9063 21.1238 26.7241 21.3441 26.5968C21.5645 26.4696 21.8142 26.4017 22.0687 26.3997C22.3231 26.3978 22.5738 26.4619 22.7961 26.5858L24.2675 27.4345C24.9374 27.8213 25.7335 27.9261 26.4807 27.7259C27.2279 27.5257 27.8649 27.0369 28.2517 26.367L30.4217 22.6074C30.6131 22.2756 30.7374 21.9094 30.7872 21.5296C30.8371 21.1498 30.8117 20.7639 30.7124 20.3939C30.6132 20.024 30.442 19.6772 30.2087 19.3733C29.9754 19.0695 29.6846 18.8146 29.3527 18.6233L27.8944 17.7789C27.6682 17.6471 27.4814 17.4574 27.3532 17.2292C27.225 17.001 27.1601 16.7427 27.1652 16.481C27.1658 16.2255 27.2334 15.9746 27.3614 15.7535C27.4893 15.5323 27.6731 15.3487 27.8944 15.221L29.3527 14.3766C29.6846 14.1852 29.9754 13.9303 30.2087 13.6265C30.442 13.3227 30.6132 12.9759 30.7124 12.6059C30.8117 12.2359 30.8371 11.85 30.7872 11.4702C30.7374 11.0905 30.6131 10.7242 30.4217 10.3924L28.2488 6.63284C28.0575 6.3009 27.8027 6.0099 27.499 5.77646C27.1952 5.54301 26.8484 5.37169 26.4784 5.27229C26.1085 5.17289 25.7225 5.14735 25.3427 5.19713C24.9628 5.24691 24.5965 5.37104 24.2646 5.56242L22.7917 6.41263C22.5693 6.537 22.3185 6.60145 22.0637 6.59966C21.809 6.59786 21.559 6.52988 21.3385 6.40239C21.1179 6.2749 20.9342 6.09227 20.8055 5.87241C20.6768 5.65254 20.6074 5.403 20.6042 5.14825V3.37492C20.6042 2.60137 20.2969 1.85951 19.7499 1.31252C19.2029 0.765543 18.4611 0.458252 17.6875 0.458252H13.3125C12.539 0.458252 11.7971 0.765543 11.2501 1.31252C10.7032 1.85951 10.3959 2.60137 10.3959 3.37492V5.262C10.3958 5.48086 10.3381 5.69585 10.2285 5.88531C10.119 6.07476 9.96138 6.23199 9.7717 6.34117L9.54711 6.47096C9.35731 6.57886 9.14273 6.63559 8.92441 6.63559C8.70608 6.63559 8.4915 6.57886 8.3017 6.47096L6.73545 5.56242C6.40368 5.37069 6.0374 5.24621 5.65751 5.19609C5.27762 5.14598 4.89158 5.17121 4.52145 5.27035C4.15131 5.36948 3.80434 5.54058 3.50036 5.77386C3.19638 6.00714 2.94134 6.29804 2.74982 6.62992L0.579822 10.3939C0.193406 11.0635 0.0886333 11.8591 0.288527 12.6059C0.488421 13.3527 0.976627 13.9896 1.64586 14.3766L3.1042 15.2195C3.33018 15.3518 3.51684 15.5419 3.645 15.7703C3.77315 15.9987 3.83817 16.2571 3.83336 16.5189C3.83373 16.7745 3.76648 17.0258 3.63842 17.2471C3.51036 17.4683 3.32606 17.6518 3.1042 17.7789ZM4.56253 12.6937L3.1042 11.8508L5.27711 8.09117L6.84336 8.99534C7.47567 9.3587 8.19221 9.54992 8.92149 9.54992C9.65077 9.54992 10.3673 9.3587 10.9996 8.99534L11.2242 8.867C11.8575 8.50156 12.3837 7.97624 12.7501 7.34359C13.1166 6.71094 13.3106 5.99314 13.3125 5.262V3.37492H17.6875V5.14825C17.6906 5.91509 17.8946 6.66774 18.2792 7.33115C18.6638 7.99456 19.2156 8.54555 19.8796 8.92919C20.5436 9.31282 21.2965 9.51569 22.0634 9.51758C22.8302 9.51946 23.5842 9.32029 24.25 8.93992L25.7186 8.09117L27.8959 11.8508L26.4375 12.6937C25.7735 13.0825 25.2228 13.6384 24.8401 14.306C24.4574 14.9736 24.256 15.7297 24.256 16.4992C24.256 17.2687 24.4574 18.0248 24.8401 18.6924C25.2228 19.36 25.7735 19.9159 26.4375 20.3047L27.8959 21.1491L25.7259 24.9087L24.25 24.0599C23.5842 23.6796 22.8302 23.4804 22.0634 23.4823C21.2965 23.4841 20.5436 23.687 19.8796 24.0707C19.2156 24.4543 18.6638 25.0053 18.2792 25.6687C17.8946 26.3321 17.6906 27.0848 17.6875 27.8516V29.6249H13.3125V27.8516C13.3104 27.0844 13.1069 26.3312 12.7225 25.6673C12.3381 25.0034 11.7862 24.452 11.1219 24.0682C10.4576 23.6844 9.70424 23.4816 8.93706 23.4802C8.16988 23.4787 7.41575 23.6786 6.75003 24.0599L5.28149 24.9087L3.1042 21.1491L4.56253 20.3047C5.22656 19.9159 5.77729 19.36 6.16 18.6924C6.5427 18.0248 6.74405 17.2687 6.74405 16.4992C6.74405 15.7297 6.5427 14.9736 6.16 14.306C5.77729 13.6384 5.22656 13.0825 4.56253 12.6937Z" fill="black"/>
</svg>
