<svg width="30" height="24" viewBox="0 0 30 24" fill="none" xmlns="http://www.w3.org/2000/svg">
<path d="M8.72367 13.9902C8.59633 13.8826 8.49475 13.7538 8.42487 13.6115C8.35499 13.4692 8.31821 13.3161 8.31667 13.1612C8.31514 13.0063 8.34887 12.8526 8.41591 12.7093C8.48295 12.5659 8.58196 12.4356 8.70715 12.3261C8.83234 12.2165 8.98121 12.1299 9.14507 12.0712C9.30893 12.0126 9.4845 11.9831 9.66154 11.9844C9.83858 11.9858 10.0135 12.0179 10.1762 12.0791C10.3389 12.1402 10.486 12.2291 10.609 12.3405L13.6663 15.0157V1.4987C13.6663 1.18928 13.8068 0.892532 14.0569 0.67374C14.3069 0.454948 14.6461 0.332031 14.9997 0.332031C15.3533 0.332031 15.6924 0.454948 15.9425 0.67374C16.1925 0.892532 16.333 1.18928 16.333 1.4987V15.0157L19.3903 12.3405C19.6418 12.128 19.9786 12.0104 20.3282 12.0131C20.6778 12.0157 21.0122 12.1384 21.2594 12.3547C21.5066 12.5711 21.6469 12.8637 21.6499 13.1696C21.6529 13.4755 21.5186 13.7702 21.2757 13.9902L15.9423 18.6569C15.8182 18.7649 15.671 18.8506 15.509 18.9089C15.3477 18.9682 15.1746 18.9987 14.9997 18.9987C14.8248 18.9987 14.6516 18.9682 14.4903 18.9089C14.3284 18.8506 14.1811 18.7649 14.057 18.6569L8.72367 13.9902ZM28.333 11.9987C27.9794 11.9987 27.6402 12.1216 27.3902 12.3404C27.1401 12.5592 26.9997 12.8559 26.9997 13.1654V21.332H2.99967V13.1654C2.99967 12.8559 2.8592 12.5592 2.60915 12.3404C2.3591 12.1216 2.01996 11.9987 1.66634 11.9987C1.31272 11.9987 0.97358 12.1216 0.723532 12.3404C0.473484 12.5592 0.333008 12.8559 0.333008 13.1654V22.4987C0.333008 22.8081 0.473484 23.1049 0.723532 23.3237C0.97358 23.5424 1.31272 23.6654 1.66634 23.6654H28.333C28.6866 23.6654 29.0258 23.5424 29.2758 23.3237C29.5259 23.1049 29.6663 22.8081 29.6663 22.4987V13.1654C29.6663 12.8559 29.5259 12.5592 29.2758 12.3404C29.0258 12.1216 28.6866 11.9987 28.333 11.9987Z" fill="black"/>
</svg>
