<svg width="18" height="14" viewBox="0 0 18 14" fill="none" xmlns="http://www.w3.org/2000/svg">
<path d="M17.3332 1.16659V4.49992L8.99984 7.83325L0.666504 4.49992V1.16659C0.666504 0.945572 0.754301 0.73361 0.910582 0.57733C1.06686 0.421049 1.27882 0.333252 1.49984 0.333252H16.4998C16.7209 0.333252 16.9328 0.421049 17.0891 0.57733C17.2454 0.73361 17.3332 0.945572 17.3332 1.16659ZM0.666504 6.29492V12.8333C0.666504 13.0543 0.754301 13.2662 0.910582 13.4225C1.06686 13.5788 1.27882 13.6666 1.49984 13.6666H16.4998C16.7209 13.6666 16.9328 13.5788 17.0891 13.4225C17.2454 13.2662 17.3332 13.0543 17.3332 12.8333V6.29492L8.99984 9.62825L0.666504 6.29492Z" fill="black"/>
</svg>
