<svg width="35" height="35" viewBox="0 0 35 35" fill="none" xmlns="http://www.w3.org/2000/svg">
<path d="M17.5002 1.45837C14.3274 1.45837 11.2259 2.3992 8.5879 4.16188C5.94986 5.92456 3.89376 8.42993 2.6796 11.3612C1.46545 14.2924 1.14777 17.5178 1.76674 20.6296C2.38571 23.7414 3.91353 26.5997 6.157 28.8432C8.40047 31.0867 11.2588 32.6145 14.3706 33.2335C17.4824 33.8524 20.7078 33.5348 23.6391 32.3206C26.5703 31.1065 29.0756 29.0504 30.8383 26.4123C32.601 23.7743 33.5418 20.6728 33.5418 17.5C33.5368 13.2471 31.8451 9.16972 28.8378 6.16241C25.8305 3.1551 21.7531 1.46339 17.5002 1.45837ZM11.8841 5.65546C11.8277 6.80805 11.4359 7.91908 10.7568 8.85212C10.1823 8.56046 9.50267 8.18567 8.74725 7.74817C9.68701 6.90365 10.7435 6.19884 11.8841 5.65546ZM9.01705 27.4969C6.79096 25.6129 5.25574 23.0412 4.65371 20.1877C9.91684 18.4013 12.1627 18.1315 13.0377 18.1315C12.88 18.5485 12.6173 18.9177 12.275 19.2034C11.8384 19.5748 11.5117 20.0584 11.33 20.6019C11.2263 21.0031 11.2399 21.4256 11.3691 21.8193C11.4984 22.213 11.7378 22.5613 12.0591 22.823C12.1262 23.4457 10.6256 25.3925 9.63246 26.6817C9.4283 26.9442 9.22267 27.2271 9.01705 27.4969ZM17.5002 30.625C15.3886 30.6251 13.3087 30.1121 11.4393 29.1303C11.607 28.9086 11.7762 28.6767 11.941 28.4623C13.9141 25.903 15.9485 23.2619 14.4333 21.1707C14.9434 20.7055 15.3501 20.1384 15.6272 19.5061C15.9043 18.8738 16.0455 18.1904 16.0418 17.5C16.0444 17.157 15.9635 16.8186 15.8063 16.5137C15.649 16.2089 15.4201 15.9468 15.1391 15.75C14.4639 15.2732 13.1048 14.3077 4.38975 17.1967C4.44627 14.6053 5.27385 12.0895 6.76684 9.97067C7.84309 10.6065 8.77788 11.1242 9.55663 11.5136C9.99817 11.7392 10.4937 11.838 10.988 11.7989C11.4823 11.7597 11.9561 11.5842 12.3566 11.2919C13.99 10.1486 14.8358 7.20858 14.8548 4.64337C17.1821 4.16293 19.5967 4.32989 21.8358 5.12608C17.1473 7.12837 16.0418 9.70233 16.0418 11.6667C16.0418 16.0913 18.9833 16.4325 20.5627 16.6163C21.8752 16.7694 21.8752 16.7694 21.8752 17.5C21.8519 18.7316 21.5914 19.9472 21.1081 21.0802C20.5787 22.4992 19.7795 24.6459 22.6816 26.0969C23.1623 26.3351 23.6925 26.4565 24.2289 26.4513C25.5875 26.3309 26.9031 25.9143 28.0833 25.2307C26.8687 26.8997 25.277 28.2583 23.438 29.1957C21.5989 30.1331 19.5644 30.6228 17.5002 30.625ZM30.0929 21.1677C29.1063 21.5097 28.1465 21.9245 27.2214 22.4088C26.0752 22.9732 24.506 23.7461 23.9854 23.4865C23.8158 23.404 23.6521 23.3099 23.4954 23.205C23.5744 22.8253 23.6901 22.4541 23.841 22.0967C24.4486 20.6393 24.7714 19.0789 24.7918 17.5C24.7918 14.1707 22.1668 13.8659 20.8981 13.7186C19.3698 13.5421 18.9585 13.494 18.9585 11.6667C18.9585 9.29254 22.67 7.76275 25.3081 6.97525C27.4678 8.56215 29.0859 10.7762 29.9421 13.3158C30.7983 15.8554 30.851 18.5972 30.0929 21.1677Z" fill="#A61C20"/>
</svg>
