<svg width="31" height="31" viewBox="0 0 31 31" fill="none" xmlns="http://www.w3.org/2000/svg">
<path d="M1.34404 25.281C1.07064 25.0075 0.91706 24.6367 0.91706 24.25C0.91706 23.8633 1.07064 23.4924 1.34404 23.2189L5.71904 18.8439C5.95744 18.6054 6.2711 18.457 6.60666 18.4237C6.94221 18.3905 7.27891 18.4746 7.55946 18.6616L10.9399 20.9148L14.469 17.3856C14.7441 17.1199 15.1125 16.9729 15.4948 16.9763C15.8772 16.9796 16.243 17.133 16.5134 17.4033C16.7837 17.6737 16.9371 18.0395 16.9404 18.4219C16.9438 18.8042 16.7968 19.1726 16.5311 19.4477L12.1561 23.8227C11.9177 24.0611 11.6041 24.2096 11.2685 24.2429C10.933 24.2761 10.5963 24.192 10.3157 24.005L6.93529 21.7518L3.40612 25.281C3.13265 25.5544 2.76178 25.708 2.37508 25.708C1.98838 25.708 1.61752 25.5544 1.34404 25.281ZM30.0834 2.37496V28.625C30.0834 29.0117 29.9298 29.3827 29.6563 29.6562C29.3828 29.9296 29.0119 30.0833 28.6251 30.0833H2.37508C1.98831 30.0833 1.61737 29.9296 1.34388 29.6562C1.07039 29.3827 0.916748 29.0117 0.916748 28.625C0.916748 28.2382 1.07039 27.8673 1.34388 27.5938C1.61737 27.3203 1.98831 27.1666 2.37508 27.1666H27.1667V9.66663H3.83341V15.5C3.83341 15.8867 3.67977 16.2577 3.40628 16.5312C3.13279 16.8046 2.76186 16.9583 2.37508 16.9583C1.98831 16.9583 1.61737 16.8046 1.34388 16.5312C1.07039 16.2577 0.916748 15.8867 0.916748 15.5V2.37496C0.916748 1.98819 1.07039 1.61725 1.34388 1.34376C1.61737 1.07027 1.98831 0.916626 2.37508 0.916626H28.6251C29.0119 0.916626 29.3828 1.07027 29.6563 1.34376C29.9298 1.61725 30.0834 1.98819 30.0834 2.37496ZM3.83341 6.74996H27.1667V3.83329H3.83341V6.74996ZM19.4478 16.531L20.9061 15.0727C21.1718 14.7976 21.3188 14.4292 21.3154 14.0469C21.3121 13.6645 21.1587 13.2987 20.8884 13.0283C20.618 12.758 20.2522 12.6046 19.8698 12.6013C19.4875 12.5979 19.1191 12.7449 18.844 13.0106L17.3857 14.4689C17.2464 14.6034 17.1353 14.7644 17.0589 14.9423C16.9825 15.1202 16.9422 15.3116 16.9405 15.5052C16.9389 15.6988 16.9758 15.8909 17.0491 16.0701C17.1224 16.2493 17.2307 16.4121 17.3676 16.5491C17.5046 16.686 17.6674 16.7943 17.8466 16.8676C18.0258 16.9409 18.2179 16.9778 18.4115 16.9762C18.6051 16.9745 18.7965 16.9342 18.9744 16.8578C19.1523 16.7814 19.3133 16.6703 19.4478 16.531Z" fill="#A61C20"/>
</svg>
