<svg width="31" height="33" viewBox="0 0 31 33" fill="none" xmlns="http://www.w3.org/2000/svg">
<path d="M3.83339 32.5417H27.1667C27.5535 32.5417 27.9244 32.3881 28.1979 32.1146C28.4714 31.8411 28.6251 31.4702 28.6251 31.0834V13.2217C28.7781 13.0833 28.9241 12.9373 29.0626 12.7842C29.6142 12.0818 29.9972 11.2621 30.1821 10.3883C30.3669 9.51444 30.3486 8.60984 30.1286 7.74421L28.5813 1.56379C28.5026 1.24816 28.3206 0.967912 28.0643 0.767613C27.808 0.567314 27.492 0.458464 27.1667 0.458374H3.83339C3.50809 0.458464 3.19216 0.567314 2.93584 0.767613C2.67952 0.967912 2.49753 1.24816 2.4188 1.56379L0.875886 7.74129C0.655274 8.6066 0.636268 9.511 0.820335 10.3848C1.0044 11.2586 1.38663 12.0785 1.93755 12.7813C2.07599 12.9343 2.222 13.0804 2.37505 13.2188V31.0834C2.37505 31.4702 2.5287 31.8411 2.80219 32.1146C3.07568 32.3881 3.44661 32.5417 3.83339 32.5417ZM16.9584 29.625H14.0417V22.3334H16.9584V29.625ZM26.0278 3.37504L27.2965 8.44858C27.4056 8.88488 27.4137 9.3403 27.3204 9.78023C27.227 10.2202 27.0347 10.633 26.7578 10.9874C26.481 11.3419 26.127 11.6285 25.7228 11.8257C25.3186 12.0228 24.8748 12.1252 24.4251 12.125C23.6846 12.1203 22.9725 11.8398 22.4278 11.3382C21.8831 10.8367 21.5449 10.1501 21.4792 9.41254L20.9746 3.37504H26.0278ZM12.9523 3.37504H18.0478L18.5086 8.91671C18.5431 9.32487 18.4925 9.73576 18.36 10.1234C18.2275 10.5109 18.0159 10.8668 17.7387 11.1684C17.4615 11.47 17.1248 11.7107 16.7497 11.8754C16.3746 12.0401 15.9695 12.1251 15.5598 12.125H15.4403C15.0306 12.1251 14.6255 12.0401 14.2504 11.8754C13.8753 11.7107 13.5386 11.47 13.2614 11.1684C12.9842 10.8668 12.7726 10.5109 12.6401 10.1234C12.5076 9.73576 12.457 9.32487 12.4915 8.91671L12.9523 3.37504ZM11.1163 13.1459C11.6673 13.743 12.3359 14.2197 13.08 14.546C13.8242 14.8722 14.6277 15.041 15.4403 15.0417H15.5598C16.3724 15.041 17.176 14.8722 17.9201 14.546C18.6642 14.2197 19.3328 13.743 19.8838 13.1459C19.929 13.0963 19.9596 13.035 20.0034 12.9855C20.6864 13.7981 21.5805 14.4064 22.5871 14.7435C23.5937 15.0805 24.6737 15.1333 25.7084 14.8959V29.625H19.8751V20.875C19.8751 20.4883 19.7214 20.1173 19.4479 19.8438C19.1744 19.5704 18.8035 19.4167 18.4167 19.4167H12.5834C12.1966 19.4167 11.8257 19.5704 11.5522 19.8438C11.2787 20.1173 11.1251 20.4883 11.1251 20.875V29.625H5.29172V14.8959C6.3265 15.1331 7.40667 15.0801 8.41328 14.7428C9.41988 14.4055 10.3138 13.7969 10.9967 12.984C11.0405 13.0336 11.0711 13.0948 11.1163 13.1459ZM3.70359 8.44858L4.97234 3.37504H10.0255L9.52089 9.41254C9.45524 10.1501 9.11703 10.8367 8.57232 11.3382C8.02761 11.8398 7.3155 12.1203 6.57505 12.125C6.12533 12.1252 5.6815 12.0228 5.27728 11.8257C4.87306 11.6285 4.5191 11.3419 4.24227 10.9874C3.96545 10.633 3.77306 10.2202 3.67972 9.78023C3.58638 9.3403 3.59454 8.88488 3.70359 8.44858Z" fill="#A61C20"/>
</svg>
