<svg width="35" height="35" viewBox="0 0 35 35" fill="none" xmlns="http://www.w3.org/2000/svg">
<path d="M2.91675 16.4908C2.91683 16.8775 3.07053 17.2484 3.34404 17.5218L17.4782 31.656C17.7517 31.9294 18.1226 32.083 18.5092 32.083C18.8959 32.083 19.2668 31.9294 19.5403 31.656L31.6561 19.5416C31.9295 19.2681 32.0831 18.8973 32.0831 18.5106C32.0831 18.1239 31.9295 17.753 31.6561 17.4795L17.522 3.34392C17.2485 3.07041 16.8777 2.91671 16.4909 2.91663H4.37508C3.98831 2.91663 3.61737 3.07027 3.34388 3.34376C3.07039 3.61725 2.91675 3.98819 2.91675 4.37496V16.4908ZM5.83341 5.83329H15.8872L28.563 18.5091L18.5092 28.5629L5.83341 15.887V5.83329ZM14.4711 10.4329C14.8705 10.8322 15.1424 11.341 15.2526 11.8949C15.3628 12.4488 15.3062 13.0229 15.0901 13.5447C14.874 14.0665 14.508 14.5124 14.0385 14.8262C13.5689 15.1399 13.0168 15.3074 12.4521 15.3074C11.8873 15.3074 11.3352 15.1399 10.8657 14.8262C10.3961 14.5124 10.0301 14.0665 9.81399 13.5447C9.59788 13.0229 9.54133 12.4488 9.65151 11.8949C9.7617 11.341 10.0337 10.8322 10.433 10.4329C10.698 10.1676 11.0128 9.95708 11.3592 9.81348C11.7057 9.66988 12.077 9.59596 12.4521 9.59596C12.8271 9.59596 13.1984 9.66988 13.5449 9.81348C13.8913 9.95708 14.2061 10.1676 14.4711 10.4329Z" fill="#A61C20"/>
</svg>
