<svg width="31" height="31" viewBox="0 0 31 31" fill="none" xmlns="http://www.w3.org/2000/svg">
<path d="M17.8157 0.916626C13.3352 0.921259 9.03948 2.70319 5.87127 5.87139C2.70307 9.0396 0.921137 13.3353 0.916504 17.8158C0.916504 18.2026 1.07015 18.5735 1.34364 18.847C1.61713 19.1205 1.98806 19.2741 2.37484 19.2741H5.64296C5.91592 21.5593 6.8264 23.7215 8.27029 25.5136C9.71418 27.3056 11.6332 28.6552 13.808 29.4081C15.9828 30.1609 18.3255 30.2866 20.5683 29.7707C22.8111 29.2549 24.8635 28.1183 26.4909 26.491C28.1182 24.8637 29.2548 22.8113 29.7706 20.5684C30.2865 18.3256 30.1608 15.9829 29.408 13.8081C28.6551 11.6333 27.3055 9.71431 25.5134 8.27041C23.7214 6.82652 21.5591 5.91604 19.274 5.64308V2.37496C19.274 1.98819 19.1204 1.61725 18.8469 1.34376C18.5734 1.07027 18.2024 0.916626 17.8157 0.916626ZM3.909 16.3575C4.2463 13.1714 5.66621 10.1973 7.93171 7.93183C10.1972 5.66633 13.1712 4.24642 16.3573 3.90913V16.3575H3.909ZM27.1665 17.8158C27.1677 20.1684 26.2814 22.435 24.6847 24.1628C23.088 25.8907 20.8983 26.9527 18.5529 27.1368C16.2074 27.321 13.8789 26.6137 12.0321 25.1561C10.1853 23.6986 8.95621 21.5981 8.59025 19.2741H17.8157C18.2024 19.2741 18.5734 19.1205 18.8469 18.847C19.1204 18.5735 19.274 18.2026 19.274 17.8158V8.59038C21.4715 8.93883 23.4729 10.0588 24.9193 11.7495C26.3657 13.4402 27.1624 15.5909 27.1665 17.8158Z" fill="#A61C20"/>
</svg>
