<svg width="35" height="35" viewBox="0 0 35 35" fill="none" xmlns="http://www.w3.org/2000/svg">
<path d="M8.9075 29.1666H5.83333C5.44656 29.1666 5.07563 29.3203 4.80214 29.5938C4.52865 29.8673 4.375 30.2382 4.375 30.625C4.375 31.0117 4.52865 31.3827 4.80214 31.6562C5.07563 31.9296 5.44656 32.0833 5.83333 32.0833H29.1667C29.5534 32.0833 29.9244 31.9296 30.1979 31.6562C30.4714 31.3827 30.625 31.0117 30.625 30.625C30.625 30.2382 30.4714 29.8673 30.1979 29.5938C29.9244 29.3203 29.5534 29.1666 29.1667 29.1666H26.0925C25.7323 25.1212 24.5306 18.0687 20.5129 16.0416C24.2521 13.9664 25.5485 9.02704 26.0021 5.83329H29.1667C29.5534 5.83329 29.9244 5.67965 30.1979 5.40616C30.4714 5.13267 30.625 4.76173 30.625 4.37496C30.625 3.98819 30.4714 3.61725 30.1979 3.34376C29.9244 3.07027 29.5534 2.91663 29.1667 2.91663H5.83333C5.44656 2.91663 5.07563 3.07027 4.80214 3.34376C4.52865 3.61725 4.375 3.98819 4.375 4.37496C4.375 4.76173 4.52865 5.13267 4.80214 5.40616C5.07563 5.67965 5.44656 5.83329 5.83333 5.83329H8.99792C9.45146 9.02704 10.7479 13.9664 14.4871 16.0416C10.4694 18.0687 9.26771 25.1212 8.9075 29.1666ZM13.125 24.2083C13.125 22.4583 17.5 18.9583 17.5 18.9583C17.5 18.9583 21.875 22.4583 21.875 24.2083V29.1666H13.125V24.2083Z" fill="#A61C20"/>
</svg>
